<?xml version="1.0" encoding="utf-8"?>
<!-- Generator: Adobe Illustrator 26.0.0, SVG Export Plug-In . SVG Version: 6.00 Build 0)  -->
<svg version="1.1" id="Layer_1" xmlns="http://www.w3.org/2000/svg" xmlns:xlink="http://www.w3.org/1999/xlink" x="0px" y="0px"
	 viewBox="0 0 231.6 231.6" style="enable-background:new 0 0 231.6 231.6;" xml:space="preserve">
<style type="text/css">
	.st0{fill:#79BF77;}
</style>
<g id="XMLID_449_">
	<path id="XMLID_450_" class="st0" d="M33.4,185.6H64c0.8,0,1.5-0.5,1.8-1.3l8.9-32.2h34.6l9.7,32.2c0.2,0.8,0.9,1.3,1.7,1.3h31.8
		c0,0,0,0,0,0c1,0,1.8-0.8,1.8-1.8c0-0.3-0.1-0.5-0.2-0.8L113.8,52.7c-0.2-0.8-0.9-1.3-1.7-1.3H73.3c-0.8,0-1.5,0.5-1.7,1.3
		L31.7,183.2c-0.2,0.6-0.1,1.1,0.3,1.6C32.3,185.3,32.8,185.6,33.4,185.6z M104,126.4H80l7.1-25.4c1.3-4.6,2.5-10,3.7-15.2
		c0.3-1.2,0.5-2.4,0.8-3.5c1.6,6.3,3.3,13,5,18.8L104,126.4z"/>
	<path id="XMLID_453_" class="st0" d="M167.8,87.3c-1,0-1.8,0.8-1.8,1.8v94.7c0,1,0.8,1.8,1.8,1.8h29.4c1,0,1.8-0.8,1.8-1.8V89.1
		c0-1-0.8-1.8-1.8-1.8H167.8z"/>
	<path id="XMLID_454_" class="st0" d="M182.3,79.3c10.3,0,17.7-7,17.7-16.6c-0.2-9.8-7.4-16.7-17.5-16.7c-5.1,0-9.7,1.8-12.9,5
		c-3,3-4.5,7.2-4.4,11.7c-0.1,4.4,1.5,8.5,4.4,11.5C172.8,77.5,177.3,79.3,182.3,79.3z"/>
</g>
</svg>
