<?xml version="1.0" encoding="utf-8"?>
<!-- Generator: Adobe Illustrator 26.0.0, SVG Export Plug-In . SVG Version: 6.00 Build 0)  -->
<svg version="1.1" id="Layer_1" xmlns="http://www.w3.org/2000/svg" xmlns:xlink="http://www.w3.org/1999/xlink" x="0px" y="0px"
	 viewBox="0 0 455 455" style="enable-background:new 0 0 455 455;" xml:space="preserve">
<style type="text/css">
	.st0{fill:#79BF77;}
</style>
<g>
	<g id="XMLID_00000141429352373355278200000011568468669672253082_">
		<g>
			<path class="st0" d="M352.5,347.7H306l-2.3-24.7h-0.8c-10.6,18.9-31,28.6-52.6,28.6c-40,0-71.9-34.1-71.9-86.4
				c-0.5-56.8,35.1-89.5,75.3-89.5c20.7,0,36.9,7.3,44.5,19h0.6v-91.2h52.3v194C351.1,316.4,351.9,336.5,352.5,347.7z M298.8,272.7
				v-21.9c0-2.8-0.3-6.6-0.8-9.4c-3.1-14-14.4-25.8-30.6-25.8c-23.8,0-36.1,21.3-36.1,47.9c0,28.5,14,46.4,35.8,46.4
				c15.1,0,27.2-10.3,30.3-25.1C298.5,281.1,298.8,277.2,298.8,272.7z"/>
			<rect x="102.5" y="115.7" class="st0" width="52.6" height="232"/>
		</g>
		<g>
		</g>
	</g>
</g>
</svg>
