<?xml version="1.0" encoding="utf-8"?>
<!-- Generator: Adobe Illustrator 26.0.0, SVG Export Plug-In . SVG Version: 6.00 Build 0)  -->
<svg version="1.1" id="Capa_1" xmlns="http://www.w3.org/2000/svg" xmlns:xlink="http://www.w3.org/1999/xlink" x="0px" y="0px"
	 viewBox="0 0 40 40" style="enable-background:new 0 0 40 40;" xml:space="preserve">
<style type="text/css">
	.st0{fill:#79BF77;}
	.st1{fill:#FFFF00;}
</style>
<g>
	<g id="XMLID_00000129167019601575923220000008017018422912080796_">
		<g>
			<polygon class="st0" points="26.6,11.8 25.2,27.5 18.9,29.3 12.6,27.5 12.2,22.6 15.3,22.6 15.5,25.1 19,26 22.4,25.2 22.8,21.2 
				12.1,21.2 11.8,18.1 23,18.1 23.3,14.9 11.5,14.9 11.2,11.8 			"/>
			<path class="st1" d="M12.1,21.2h10.7l-0.4,4L19,26l-3.5-0.9l-0.2-2.5h-3.1l0.4,4.9l6.3,1.8l6.3-1.8l1.4-15.7H11.2l0.3,3.1h11.8
				L23,18.1H11.8L12.1,21.2z M31.3,6.6l-2.2,25.2L19,34.6L8.9,31.8L6.7,6.6H31.3z"/>
		</g>
		<g>
		</g>
	</g>
</g>
</svg>
