<svg xmlns="http://www.w3.org/2000/svg" xmlns:xlink="http://www.w3.org/1999/xlink" viewBox="0 0 189.19 88.94"><defs><style>.cls-1{fill:#fff;}.cls-2{fill:#eae7c8;}.cls-3{fill:#fdf9d7;}.cls-4{fill:url(#linear-gradient);}.cls-5{fill:#066225;}.cls-6{fill:url(#linear-gradient-2);}.cls-7{fill:url(#linear-gradient-3);}.cls-8{fill:url(#linear-gradient-4);}.cls-9{fill:url(#linear-gradient-5);}.cls-10{fill:#497a21;}.cls-11{fill:#69b142;}.cls-12{fill:#41702b;}.cls-13{fill:#2b4a1d;}.cls-14{fill:url(#linear-gradient-6);}.cls-15{fill:url(#linear-gradient-7);}.cls-16{fill:#4a7d27;}.cls-17{fill:#599429;}.cls-18{fill:#59a135;}.cls-19{fill:url(#linear-gradient-8);}.cls-20{fill:url(#linear-gradient-9);}.cls-21{fill:url(#linear-gradient-10);}.cls-22{fill:url(#linear-gradient-11);}.cls-23{fill:url(#linear-gradient-12);}</style><linearGradient id="linear-gradient" x1="709.85" y1="104.85" x2="718.93" y2="104.85" gradientTransform="matrix(-0.99, -0.13, -0.13, 0.99, 893.38, 47.51)" gradientUnits="userSpaceOnUse"><stop offset="0" stop-color="#c6c7c8"/><stop offset="1" stop-color="#eceded"/></linearGradient><linearGradient id="linear-gradient-2" x1="-711.83" y1="-76.13" x2="-702.75" y2="-76.13" gradientTransform="translate(728.38 47.51) rotate(-7.24)" xlink:href="#linear-gradient"/><linearGradient id="linear-gradient-3" x1="-694.85" y1="-142.24" x2="-689.43" y2="-142.24" gradientTransform="matrix(0.98, -0.21, 0.21, 0.98, 730.94, 48.58)" xlink:href="#linear-gradient"/><linearGradient id="linear-gradient-4" x1="1441.38" y1="53.8" x2="1437.95" y2="59.07" gradientTransform="matrix(-1, 0, 0, 1, 1621.76, 0)" xlink:href="#linear-gradient"/><linearGradient id="linear-gradient-5" x1="-694.08" y1="-91.86" x2="-690.82" y2="-91.86" gradientTransform="translate(728.38 47.51) rotate(-7.24)" xlink:href="#linear-gradient"/><linearGradient id="linear-gradient-6" x1="978.15" y1="212.45" x2="983.57" y2="212.45" gradientTransform="matrix(-0.98, -0.21, -0.21, 0.98, 1168.49, 48.58)" xlink:href="#linear-gradient"/><linearGradient id="linear-gradient-7" x1="1002.51" y1="124.27" x2="1005.76" y2="124.27" gradientTransform="matrix(-0.99, -0.13, -0.13, 0.99, 1171.06, 47.51)" xlink:href="#linear-gradient"/><linearGradient id="linear-gradient-8" x1="985.07" y1="128.24" x2="989.21" y2="128.24" gradientTransform="matrix(-0.99, -0.13, -0.13, 0.99, 1171.06, 47.51)" xlink:href="#linear-gradient"/><linearGradient id="linear-gradient-9" x1="8.27" y1="53.39" x2="4.84" y2="58.66" gradientTransform="matrix(1, 0, 0, 1, 0, 0)" xlink:href="#linear-gradient"/><linearGradient id="linear-gradient-10" x1="994.64" y1="124.01" x2="998.78" y2="124.01" gradientTransform="matrix(-0.99, -0.13, -0.13, 0.99, 1171.06, 47.51)" xlink:href="#linear-gradient"/><linearGradient id="linear-gradient-11" x1="-711.49" y1="-88.05" x2="-707.36" y2="-88.05" gradientTransform="translate(728.38 47.51) rotate(-7.24)" xlink:href="#linear-gradient"/><linearGradient id="linear-gradient-12" x1="-701.94" y1="-92.12" x2="-697.81" y2="-92.12" gradientTransform="translate(728.38 47.51) rotate(-7.24)" xlink:href="#linear-gradient"/></defs><g id="Capa_2" data-name="Capa 2"><g id="Capa_2-2" data-name="Capa 2"><polygon class="cls-1" points="156.93 26.36 168.53 29.57 172.4 41.91 158.89 36.13 156.93 26.36"/><polygon class="cls-1" points="20.32 30.17 33.14 25.94 29.69 35.28 16.72 42.22 20.32 30.17"/><path class="cls-2" d="M120.5,38.32A26.86,26.86,0,0,0,128.38,45s-4,6.49-3.69,11.77c0,0-5.59,2.9-11.17,1.54C113.52,58.29,113.23,46.41,120.5,38.32Z"/><path class="cls-2" d="M68.1,38.56a35.43,35.43,0,0,1-7.35,6s4.07,6.06,3.75,11.2a14.1,14.1,0,0,0,10,1.56S75.36,46.43,68.1,38.56Z"/><path class="cls-3" d="M66.42,69.77c2.27.1,4.54.18,6.81.26A52.4,52.4,0,0,0,75,57.37a47.36,47.36,0,0,1-11.26-2.31s.2,3-2.68,11.17Z"/><path class="cls-3" d="M121.6,69.91c-2.27.1-4.54.18-6.81.26A52.4,52.4,0,0,1,113,57.51a52,52,0,0,0,12.72-2.31s-.57,2.65,2.32,10.77Z"/><polygon class="cls-4" points="167.02 60.63 176.82 55.6 171.17 68.04 167.02 60.63"/><path class="cls-5" d="M33.4,50.14s8.06.6,9.7,1.1L49.76,31.9l-4.11.94Z"/><polygon class="cls-6" points="21.62 60.23 11.82 55.2 17.47 67.64 21.62 60.23"/><polygon class="cls-7" points="26.73 50.93 21.06 50.26 24.24 55.68 26.73 50.93"/><polygon class="cls-8" points="188.65 55.93 178.7 61.82 182.62 52.34 188.65 55.93"/><polygon class="cls-9" points="31.42 42.74 27.96 41.35 29.38 46.23 31.42 42.74"/><polygon class="cls-10" points="0.29 49.16 0 55.52 26 40.29 28.3 33.9 0.29 49.16"/><polygon class="cls-11" points="3.21 47.56 11.28 33.82 12.41 42.55 3.21 47.56"/><path class="cls-3" d="M59.79,29.34s6.47,4.3,8.91,8.51a32.39,32.39,0,0,1-7,6.08s-7.3-10.66-11.35-12.71Z"/><polygon class="cls-12" points="166.28 25.73 156.48 16.36 155.51 25.99 159.25 28.73 166.28 25.73"/><polygon class="cls-13" points="162.5 24.92 141.87 7.11 150.45 30.11 154.01 24.7 157.28 27.17 162.5 24.92"/><polygon class="cls-14" points="162.46 51.76 168.14 51.07 164.95 56.65 162.46 51.76"/><polygon class="cls-15" points="157.78 43.35 161.24 41.91 159.82 46.93 157.78 43.35"/><polygon class="cls-10" points="188.9 49.94 189.19 56.49 163.19 40.83 160.89 34.25 188.9 49.94"/><polygon class="cls-11" points="185.99 48.3 177.92 34.17 176.78 43.15 185.99 48.3"/><path class="cls-5" d="M155.8,51s-8.07.62-9.7,1.13L139.44,32.2l4.11,1Z"/><path class="cls-16" d="M154.37,36.28,172,69.34l-2,2.29L143.55,33.17S153.64,34.92,154.37,36.28Z"/><path class="cls-3" d="M129.41,29.57s-6.47,4.41-8.91,8.75a32.45,32.45,0,0,0,7,6.24s7.3-11,11.35-13.06Z"/><path class="cls-17" d="M163.88,41.24l-9.54-22.41L129.21,30.22S154.16,35.5,163.88,41.24Z"/><polygon class="cls-12" points="18.38 26.08 28.17 16.71 29.14 26.34 25.4 29.08 18.38 26.08"/><polygon class="cls-13" points="23.84 24.7 47.98 7.11 35.89 29.89 32.33 24.48 29.06 26.95 23.84 24.7"/><path class="cls-18" d="M150.27,20.69S139.66,14.22,134.68,15c0,0-3.4,14-2.29,14.25S150.27,20.69,150.27,20.69Z"/><path class="cls-17" d="M135.81,11.3s-13.56.81-22.24,5.93c0,0,5.09,15.12,6.74,22.71,0,0,7.83-9.24,12.08-10.71Z"/><path class="cls-11" d="M121.11,39s-4.78-18.53-7.6-25.41c0,0-11.42,8-17.77,10.42,0,0,9.22,26.06,19.91,27Z"/><path class="cls-18" d="M108.32,43.15l-7.4-24.65s-3.34-7.61-6.71.65c-3.79,9.31-8.35,24.54-8,26.44,0,0,28.71,20.2,29.12,22.68s-1.89-12.63.37-17.2"/><polygon class="cls-19" points="177.84 49.64 173.55 52.89 173.95 47.31 177.84 49.64"/><polygon class="cls-20" points="0 55.52 9.94 61.42 6.03 51.94 0 55.52"/><polygon class="cls-21" points="168.87 44.25 164.59 47.49 164.99 41.91 168.87 44.25"/><path class="cls-16" d="M34.83,35.87,17.19,68l2,2.23L45.65,32.84S35.55,34.54,34.83,35.87Z"/><polygon class="cls-18" points="155.8 22.2 160.89 34.25 161.02 34.32 158.54 28.58 166.75 31.56 170.65 39.53 169.25 38.94 176.78 43.15 178.62 28.65 155.8 22.2"/><path class="cls-17" d="M25.32,40.69l9.53-21.8L60,30S35,35.11,25.32,40.69Z"/><path class="cls-17" d="M53.38,11.58s13.56.78,22.24,5.76c0,0-5.09,14.71-6.74,22.09,0,0-7.83-9-12.07-10.42Z"/><path class="cls-11" d="M68.1,38.56s4.76-18,7.58-24.72c0,0,11.42,7.73,17.77,10.12,0,0-9.21,25.35-19.9,26.3Z"/><path class="cls-18" d="M38.93,20.71s10.6-6.3,15.59-5.56c0,0,3.39,13.6,2.29,13.86S38.93,20.71,38.93,20.71Z"/><path class="cls-18" d="M77.75,43.81l8.93-24.36s7.95-2.42,6.81,3c-1.71,8.11,7,25.27,6.68,26.86,0,0-15.53,8.33-15.9,10.34s-2-5.91-4-9.61"/><path class="cls-18" d="M79.06,46.22,94.55,9.93s7.24,33.3,9.65,37.55c0,0-29.93,16.87-30.35,18.89s2-12.41-.3-16.11"/><polygon class="cls-22" points="11.36 48.87 15.64 52.02 15.24 46.59 11.36 48.87"/><polygon class="cls-23" points="20.32 43.62 24.6 46.78 24.2 41.35 20.32 43.62"/><polygon class="cls-18" points="10.58 28.45 12.41 42.55 19.94 38.45 18.55 39.03 22.45 31.28 30.65 28.38 28.18 33.96 28.3 33.9 33.4 22.18 10.58 28.45"/><polygon class="cls-13" points="94.67 0 86.68 19.45 101.22 19.45 94.67 0"/><path class="cls-2" d="M123.51,80.37a20.48,20.48,0,0,1-6.31,2c-3,.32-12.63.94-12.63.94s6.68-4.27,8.16-8.22a17.92,17.92,0,0,0,.91-6.56s4.75.63,7.2,0A33.93,33.93,0,0,0,128.05,66a12.26,12.26,0,0,1,0,8.82A11,11,0,0,1,123.51,80.37Z"/><path class="cls-2" d="M65.62,80.63a20.07,20.07,0,0,0,6.31,2c3.31.33,11.12.68,10.89.67,0,0-4.94-4-6.41-8a17.86,17.86,0,0,1-.92-6.57s-4.75.63-7.2,0a33.28,33.28,0,0,1-7.21-2.58,12.28,12.28,0,0,0,0,8.83A11,11,0,0,0,65.62,80.63Z"/><path class="cls-17" d="M83.67,83.53a15.36,15.36,0,0,1,9.75,5.41s-1.67-8.23-3-13c-1.51-5.43-3.75-22.31-3.75-22.31s-6,5.8-8,7.05A16.92,16.92,0,0,1,71.88,63s-1.78,9.23.4,14.64C74.21,82.4,79.42,82.91,83.67,83.53Z"/><path class="cls-17" d="M103.21,83.53a15.37,15.37,0,0,0-9.76,5.41s1.68-8.23,3-13c1.51-5.43,3.75-22.31,3.75-22.31s6,5.8,8,7.05A16.94,16.94,0,0,0,115,63s1.77,9.23-.41,14.64C112.67,82.4,107.46,82.91,103.21,83.53Z"/><path class="cls-13" d="M77.75,43.81A380.5,380.5,0,0,1,93.44,88.94s9.67-38,14.92-46.31c0,0-3.91-1.28-15.29,6.8C93.07,49.43,84,43.62,77.75,43.81Z"/></g></g></svg>