<?xml version="1.0" encoding="utf-8"?>
<!-- Generator: Adobe Illustrator 26.0.0, SVG Export Plug-In . SVG Version: 6.00 Build 0)  -->
<svg version="1.1" id="Capa_1" xmlns="http://www.w3.org/2000/svg" xmlns:xlink="http://www.w3.org/1999/xlink" x="0px" y="0px"
	 viewBox="0 0 40 40" style="enable-background:new 0 0 40 40;" xml:space="preserve">
<style type="text/css">
	.st0{fill:#79BF77;}
	.st1{fill:#FFF800;}
</style>
<g>
	<g id="XMLID_00000073681355292275709640000009691340373272110526_">
		<g>
			<polygon class="st0" points="16.4,25.5 19.9,26.4 23.3,25.5 23.7,21.5 13,21.5 12.1,12.1 27.6,12.1 27.3,15.2 15.5,15.2 
				15.8,18.4 27,18.4 26.2,27.9 19.9,29.7 13.5,27.9 13.1,23 16.2,23 			"/>
			<path class="st1" d="M13,21.5h10.7l-0.4,4l-3.4,0.9l-3.5-0.9L16.2,23h-3.1l0.4,4.9l6.4,1.8l6.3-1.8l0.8-9.5H15.8l-0.3-3.2h11.8
				l0.3-3.1H12.1L13,21.5z M32.3,7l-2.2,25.2L19.9,35L9.8,32.2L7.6,7H32.3z"/>
		</g>
		<g>
		</g>
	</g>
</g>
</svg>
