<svg xmlns="http://www.w3.org/2000/svg" xmlns:xlink="http://www.w3.org/1999/xlink" viewBox="0 0 381.14 385.27"><defs><style>.cls-1{isolation:isolate;}.cls-102,.cls-106,.cls-115,.cls-122,.cls-129,.cls-2,.cls-20,.cls-21,.cls-27,.cls-28,.cls-31,.cls-32,.cls-88,.cls-91,.cls-92,.cls-96,.cls-97,.cls-98{mix-blend-mode:color-dodge;}.cls-123,.cls-2,.cls-21,.cls-91{opacity:0.5;}.cls-2{fill:url(#radial-gradient);}.cls-100,.cls-101,.cls-116,.cls-124,.cls-3,.cls-4{opacity:0.2;}.cls-3{fill:url(#linear-gradient);}.cls-5{opacity:0;}.cls-6{opacity:0.09;}.cls-7{opacity:0.18;}.cls-8{opacity:0.27;}.cls-9{opacity:0.36;}.cls-10{opacity:0.45;}.cls-11{opacity:0.55;}.cls-12{opacity:0.64;}.cls-13{opacity:0.73;}.cls-14,.cls-18{opacity:0.82;}.cls-15{opacity:0.91;}.cls-16{fill:url(#linear-gradient-2);}.cls-17{fill:url(#linear-gradient-3);}.cls-103,.cls-116,.cls-117,.cls-119,.cls-18,.cls-24,.cls-70,.cls-78{mix-blend-mode:multiply;}.cls-18{fill:url(#linear-gradient-4);}.cls-118,.cls-121,.cls-123,.cls-124,.cls-125,.cls-130,.cls-19,.cls-26,.cls-29,.cls-30,.cls-33,.cls-38,.cls-42,.cls-47,.cls-51,.cls-55,.cls-59{mix-blend-mode:screen;}.cls-19,.cls-26{opacity:0.6;}.cls-19{fill:url(#radial-gradient-2);}.cls-20{fill:url(#radial-gradient-3);}.cls-21{fill:url(#radial-gradient-4);}.cls-22{fill:url(#linear-gradient-5);}.cls-23{fill:url(#linear-gradient-6);}.cls-24{fill:#bcbec0;}.cls-25{fill:url(#linear-gradient-7);}.cls-26{fill:url(#radial-gradient-5);}.cls-27{fill:url(#radial-gradient-6);}.cls-28{fill:url(#radial-gradient-7);}.cls-29{fill:url(#radial-gradient-8);}.cls-30{fill:url(#radial-gradient-9);}.cls-31{fill:url(#radial-gradient-10);}.cls-32{fill:url(#radial-gradient-11);}.cls-33{fill:url(#linear-gradient-8);}.cls-34{opacity:0.9;}.cls-35{fill:url(#linear-gradient-9);}.cls-36{fill:url(#linear-gradient-10);}.cls-37{fill:url(#linear-gradient-11);}.cls-38{fill:url(#linear-gradient-12);}.cls-39{fill:url(#linear-gradient-13);}.cls-40{fill:url(#linear-gradient-14);}.cls-41{fill:url(#linear-gradient-15);}.cls-42{fill:url(#linear-gradient-16);}.cls-43{fill:url(#linear-gradient-17);}.cls-44{fill:url(#linear-gradient-18);}.cls-45{fill:url(#linear-gradient-19);}.cls-46{fill:#fff;}.cls-47{fill:url(#linear-gradient-20);}.cls-48{fill:url(#linear-gradient-21);}.cls-49{fill:url(#linear-gradient-22);}.cls-50{fill:url(#linear-gradient-23);}.cls-51{fill:url(#linear-gradient-24);}.cls-52{fill:url(#linear-gradient-25);}.cls-53{fill:url(#linear-gradient-26);}.cls-54{fill:url(#linear-gradient-27);}.cls-55{fill:url(#linear-gradient-28);}.cls-56{fill:url(#linear-gradient-29);}.cls-57{fill:url(#linear-gradient-30);}.cls-58{fill:url(#linear-gradient-31);}.cls-59{fill:url(#linear-gradient-32);}.cls-60{fill:url(#linear-gradient-33);}.cls-61{fill:url(#linear-gradient-34);}.cls-62{fill:url(#linear-gradient-35);}.cls-63{fill:url(#linear-gradient-36);}.cls-64{fill:#138bbd;}.cls-65{fill:#18a0ca;}.cls-66{fill:#1cb6d7;}.cls-67{fill:#21cbe5;}.cls-68{fill:#25e1f2;}.cls-69{fill:#2af6ff;}.cls-70{fill:url(#linear-gradient-37);}.cls-71{fill:url(#linear-gradient-38);}.cls-72{fill:#9f19ab;}.cls-73{fill:#b228b2;}.cls-74{fill:#c537b9;}.cls-75{fill:#d945c0;}.cls-76{fill:#ec54c7;}.cls-77{fill:#ff63ce;}.cls-78{fill:url(#linear-gradient-39);}.cls-79{fill:url(#linear-gradient-40);}.cls-80{fill:#ffba78;}.cls-81{fill:#ffc281;}.cls-82{fill:#ffcb8b;}.cls-83{fill:#ffd394;}.cls-84{fill:#ffdc9e;}.cls-85{fill:#ffe4a7;}.cls-86{fill:url(#linear-gradient-41);}.cls-87{fill:url(#linear-gradient-42);}.cls-88{fill:url(#radial-gradient-12);}.cls-89{fill:#1f0d3d;}.cls-90{fill:url(#linear-gradient-43);}.cls-91{fill:url(#radial-gradient-13);}.cls-92{fill:url(#radial-gradient-14);}.cls-93{fill:#25054d;}.cls-94{fill:url(#linear-gradient-44);}.cls-95{fill:url(#linear-gradient-45);}.cls-96{fill:url(#radial-gradient-15);}.cls-97{fill:url(#radial-gradient-16);}.cls-98{fill:url(#radial-gradient-17);}.cls-99{fill:url(#linear-gradient-46);}.cls-100{fill:url(#linear-gradient-47);}.cls-101{fill:url(#linear-gradient-48);}.cls-102{fill:url(#radial-gradient-18);}.cls-103{fill:#e6e7e8;}.cls-104{fill:url(#linear-gradient-49);}.cls-105{fill:url(#linear-gradient-50);}.cls-106{fill:url(#radial-gradient-19);}.cls-107{fill:url(#linear-gradient-51);}.cls-108{fill:url(#linear-gradient-52);}.cls-109{fill:url(#radial-gradient-20);}.cls-110{fill:url(#linear-gradient-53);}.cls-111{fill:url(#linear-gradient-54);}.cls-112{fill:url(#linear-gradient-55);}.cls-113{fill:url(#linear-gradient-56);}.cls-114{fill:url(#linear-gradient-57);}.cls-115{fill:url(#radial-gradient-21);}.cls-116{fill:url(#radial-gradient-22);}.cls-117{opacity:0.3;fill:url(#radial-gradient-23);}.cls-118{fill:url(#radial-gradient-24);}.cls-119{fill:#939598;}.cls-120{fill:url(#linear-gradient-58);}.cls-121{fill:#58595b;}.cls-122{fill:url(#radial-gradient-25);}.cls-123{fill:url(#radial-gradient-26);}.cls-124{fill:url(#radial-gradient-27);}.cls-125{fill:url(#linear-gradient-59);}.cls-126{fill:url(#linear-gradient-60);}.cls-127{fill:url(#linear-gradient-61);}.cls-128{fill:url(#linear-gradient-62);}.cls-129{fill:url(#radial-gradient-28);}.cls-130{fill:url(#radial-gradient-29);}</style><radialGradient id="radial-gradient" cx="66.1" cy="111.3" r="190.47" gradientTransform="translate(135.02 77.46) scale(0.96 0.98)" gradientUnits="userSpaceOnUse"><stop offset="0" stop-color="#fa45c1"/><stop offset="0.21" stop-color="#cb389d"/><stop offset="0.67" stop-color="#571843"/><stop offset="1"/></radialGradient><linearGradient id="linear-gradient" x1="153.6" y1="315.83" x2="297.4" y2="315.83" gradientUnits="userSpaceOnUse"><stop offset="0.06" stop-color="#200041"/><stop offset="0.26" stop-color="#210243"/><stop offset="0.36" stop-color="#25084b"/><stop offset="0.43" stop-color="#2c1358"/><stop offset="0.47" stop-color="#311b61"/><stop offset="0.48" stop-color="#351f65"/><stop offset="0.5" stop-color="#422c73"/><stop offset="0.51" stop-color="#584188"/><stop offset="0.52" stop-color="#765fa7"/><stop offset="0.53" stop-color="#8770b8"/><stop offset="0.54" stop-color="#7e67ae"/><stop offset="0.56" stop-color="#5c468d"/><stop offset="0.59" stop-color="#442e75"/><stop offset="0.61" stop-color="#362066"/><stop offset="0.63" stop-color="#311b61"/><stop offset="0.67" stop-color="#2a1155"/><stop offset="0.75" stop-color="#230446"/><stop offset="0.81" stop-color="#200041"/><stop offset="1" stop-color="#200041"/></linearGradient><linearGradient id="linear-gradient-2" x1="153.6" y1="293.9" x2="297.4" y2="293.9" xlink:href="#linear-gradient"/><linearGradient id="linear-gradient-3" x1="192.08" y1="303.15" x2="257.27" y2="267.09" gradientUnits="userSpaceOnUse"><stop offset="0" stop-color="#311b61"/><stop offset="0.2" stop-color="#290f52"/><stop offset="0.49" stop-color="#200041"/><stop offset="1" stop-color="#0f001f"/></linearGradient><linearGradient id="linear-gradient-4" x1="226.65" y1="286.1" x2="239.45" y2="264.65" gradientUnits="userSpaceOnUse"><stop offset="0" stop-color="#fff"/><stop offset="1"/></linearGradient><radialGradient id="radial-gradient-2" cx="227.08" cy="315.26" r="51.16" gradientUnits="userSpaceOnUse"><stop offset="0" stop-color="#af8afc"/><stop offset="1" stop-color="#10054d"/></radialGradient><radialGradient id="radial-gradient-3" cx="-52.46" cy="-1215.82" r="35.94" gradientTransform="matrix(0.57, 0, 0, 0.66, 263.98, 1138.29)" gradientUnits="userSpaceOnUse"><stop offset="0" stop-color="#972a74"/><stop offset="0.04" stop-color="#8a266a"/><stop offset="0.19" stop-color="#601b4a"/><stop offset="0.35" stop-color="#3d112f"/><stop offset="0.51" stop-color="#230a1b"/><stop offset="0.67" stop-color="#0f040c"/><stop offset="0.83" stop-color="#040103"/><stop offset="1"/></radialGradient><radialGradient id="radial-gradient-4" cx="-1088.56" cy="-3496.12" r="81.65" gradientTransform="matrix(0, 1.08, -0.44, 0, -1315.24, 1499.23)" gradientUnits="userSpaceOnUse"><stop offset="0" stop-color="#4f18ad"/><stop offset="0.29" stop-color="#3a127f"/><stop offset="0.94" stop-color="#05010a"/><stop offset="1"/></radialGradient><linearGradient id="linear-gradient-5" x1="332.18" y1="328.48" x2="112.12" y2="23.98" xlink:href="#linear-gradient-3"/><linearGradient id="linear-gradient-6" x1="141.88" y1="54.31" x2="329.1" y2="335.83" gradientUnits="userSpaceOnUse"><stop offset="0.01" stop-color="#9f19ab"/><stop offset="0.43" stop-color="#5f27bd"/><stop offset="0.9" stop-color="#3d065f"/></linearGradient><linearGradient id="linear-gradient-7" x1="378.93" y1="335.09" x2="205.72" y2="58.33" xlink:href="#linear-gradient"/><radialGradient id="radial-gradient-5" cx="329.79" cy="177.48" r="29.48" xlink:href="#radial-gradient-2"/><radialGradient id="radial-gradient-6" cx="-229.78" cy="-1397.5" r="35.94" gradientTransform="matrix(0.52, 0, 0, 0.66, 450.25, 1088.16)" xlink:href="#radial-gradient-3"/><radialGradient id="radial-gradient-7" cx="-174.87" cy="-1579.28" r="100.44" gradientTransform="matrix(0.64, 0, 0, 0.66, 263.53, 1152.31)" xlink:href="#radial-gradient-3"/><radialGradient id="radial-gradient-8" cx="305.78" cy="114.32" r="14.7" gradientTransform="translate(336.79 -210.66) rotate(74.95)" gradientUnits="userSpaceOnUse"><stop offset="0.09" stop-color="#c211a1"/><stop offset="0.09" stop-color="#b9109b"/><stop offset="0.13" stop-color="#5b0663"/><stop offset="0.15" stop-color="#510558"/><stop offset="0.21" stop-color="#38043d"/><stop offset="0.29" stop-color="#230226"/><stop offset="0.37" stop-color="#130115"/><stop offset="0.48" stop-color="#080109"/><stop offset="0.62" stop-color="#020002"/><stop offset="1"/></radialGradient><radialGradient id="radial-gradient-9" cx="233.29" cy="350.75" r="14.7" gradientTransform="translate(520.59 42.69) rotate(76.63)" xlink:href="#radial-gradient-8"/><radialGradient id="radial-gradient-10" cx="280.15" cy="146.53" r="117.94" gradientTransform="matrix(1, 0, 0, 1, 0, 0)" xlink:href="#radial-gradient"/><radialGradient id="radial-gradient-11" cx="231.42" cy="326.33" r="48.53" gradientTransform="matrix(1, 0, 0, 1, 0, 0)" xlink:href="#radial-gradient"/><linearGradient id="linear-gradient-8" x1="126.46" y1="217.47" x2="155.65" y2="197.76" gradientUnits="userSpaceOnUse"><stop offset="0" stop-color="#fdd65b"/><stop offset="0.01" stop-color="#f7d159"/><stop offset="0.13" stop-color="#bea144"/><stop offset="0.25" stop-color="#8b7632"/><stop offset="0.37" stop-color="#605223"/><stop offset="0.49" stop-color="#3e3416"/><stop offset="0.62" stop-color="#231d0c"/><stop offset="0.74" stop-color="#0f0d05"/><stop offset="0.87" stop-color="#040301"/><stop offset="1"/></linearGradient><linearGradient id="linear-gradient-9" x1="137.19" y1="221.06" x2="167.48" y2="211.99" gradientUnits="userSpaceOnUse"><stop offset="0.04" stop-color="#ffa98c"/><stop offset="0.32" stop-color="#ffb892"/><stop offset="0.86" stop-color="#fee1a3"/><stop offset="1" stop-color="#feeca8"/></linearGradient><linearGradient id="linear-gradient-10" x1="91.05" y1="224.83" x2="160.44" y2="209.28" xlink:href="#linear-gradient-9"/><linearGradient id="linear-gradient-11" x1="139.61" y1="184.41" x2="128.74" y2="205.11" xlink:href="#linear-gradient-9"/><linearGradient id="linear-gradient-12" x1="126.46" y1="188.99" x2="155.65" y2="169.28" xlink:href="#linear-gradient-8"/><linearGradient id="linear-gradient-13" x1="137.19" y1="192.57" x2="167.48" y2="183.5" xlink:href="#linear-gradient-9"/><linearGradient id="linear-gradient-14" x1="91.05" y1="196.35" x2="160.44" y2="180.79" xlink:href="#linear-gradient-9"/><linearGradient id="linear-gradient-15" x1="139.61" y1="155.92" x2="128.74" y2="176.63" xlink:href="#linear-gradient-9"/><linearGradient id="linear-gradient-16" x1="126.46" y1="160.24" x2="155.65" y2="140.53" xlink:href="#linear-gradient-8"/><linearGradient id="linear-gradient-17" x1="137.19" y1="163.82" x2="167.48" y2="154.75" xlink:href="#linear-gradient-9"/><linearGradient id="linear-gradient-18" x1="91.05" y1="167.6" x2="160.44" y2="152.04" xlink:href="#linear-gradient-9"/><linearGradient id="linear-gradient-19" x1="139.61" y1="127.17" x2="128.74" y2="147.88" xlink:href="#linear-gradient-9"/><linearGradient id="linear-gradient-20" x1="293.71" y1="276.39" x2="322.9" y2="256.68" gradientUnits="userSpaceOnUse"><stop offset="0" stop-color="#2af6ff"/><stop offset="0.02" stop-color="#29eef7"/><stop offset="0.13" stop-color="#1fb7be"/><stop offset="0.25" stop-color="#17868b"/><stop offset="0.37" stop-color="#105d60"/><stop offset="0.49" stop-color="#0a3b3e"/><stop offset="0.62" stop-color="#062123"/><stop offset="0.74" stop-color="#030f0f"/><stop offset="0.87" stop-color="#010404"/><stop offset="1"/></linearGradient><linearGradient id="linear-gradient-21" x1="304.44" y1="279.97" x2="334.73" y2="270.9" gradientUnits="userSpaceOnUse"><stop offset="0.04" stop-color="#138bbd"/><stop offset="0.23" stop-color="#169ac7"/><stop offset="0.59" stop-color="#1fc3df"/><stop offset="1" stop-color="#2af6ff"/></linearGradient><linearGradient id="linear-gradient-22" x1="258.3" y1="283.75" x2="327.69" y2="268.19" xlink:href="#linear-gradient-21"/><linearGradient id="linear-gradient-23" x1="306.86" y1="243.32" x2="295.99" y2="264.03" xlink:href="#linear-gradient-21"/><linearGradient id="linear-gradient-24" x1="293.71" y1="237.14" x2="322.9" y2="217.43" gradientUnits="userSpaceOnUse"><stop offset="0" stop-color="#c211a1"/><stop offset="0.01" stop-color="#bd119d"/><stop offset="0.15" stop-color="#8b0c73"/><stop offset="0.29" stop-color="#600850"/><stop offset="0.42" stop-color="#3e0533"/><stop offset="0.56" stop-color="#23031d"/><stop offset="0.7" stop-color="#0f010d"/><stop offset="0.85" stop-color="#040003"/><stop offset="1"/></linearGradient><linearGradient id="linear-gradient-25" x1="304.44" y1="240.72" x2="334.73" y2="231.65" gradientUnits="userSpaceOnUse"><stop offset="0.04" stop-color="#9f19ab"/><stop offset="0.24" stop-color="#ae25b1"/><stop offset="0.65" stop-color="#d744bf"/><stop offset="1" stop-color="#ff63ce"/></linearGradient><linearGradient id="linear-gradient-26" x1="258.3" y1="244.5" x2="327.69" y2="228.94" xlink:href="#linear-gradient-25"/><linearGradient id="linear-gradient-27" x1="306.86" y1="204.07" x2="295.99" y2="224.78" xlink:href="#linear-gradient-25"/><linearGradient id="linear-gradient-28" x1="293.71" y1="207.91" x2="322.9" y2="188.2" xlink:href="#linear-gradient-24"/><linearGradient id="linear-gradient-29" x1="304.44" y1="211.5" x2="334.73" y2="202.43" xlink:href="#linear-gradient-25"/><linearGradient id="linear-gradient-30" x1="258.3" y1="215.27" x2="327.69" y2="199.71" xlink:href="#linear-gradient-25"/><linearGradient id="linear-gradient-31" x1="306.86" y1="174.85" x2="295.99" y2="195.55" xlink:href="#linear-gradient-25"/><linearGradient id="linear-gradient-32" x1="293.71" y1="177.99" x2="322.9" y2="158.28" xlink:href="#linear-gradient-24"/><linearGradient id="linear-gradient-33" x1="304.44" y1="181.57" x2="334.73" y2="172.5" xlink:href="#linear-gradient-25"/><linearGradient id="linear-gradient-34" x1="258.3" y1="185.35" x2="327.69" y2="169.79" xlink:href="#linear-gradient-25"/><linearGradient id="linear-gradient-35" x1="306.86" y1="144.92" x2="295.99" y2="165.63" xlink:href="#linear-gradient-25"/><linearGradient id="linear-gradient-36" x1="-3416.98" y1="3065.6" x2="-3413.88" y2="3039.9" gradientTransform="matrix(0.87, 0.5, -1, 0.58, 6141.71, 280.97)" gradientUnits="userSpaceOnUse"><stop offset="0.03" stop-color="#d4d1d8"/><stop offset="1" stop-color="#eeebf2"/></linearGradient><linearGradient id="linear-gradient-37" x1="-3417.05" y1="3065.72" x2="-3414.29" y2="3042.87" xlink:href="#linear-gradient-36"/><linearGradient id="linear-gradient-38" x1="-3423.79" y1="3074.37" x2="-3417.28" y2="3051.07" xlink:href="#linear-gradient-36"/><linearGradient id="linear-gradient-39" x1="-3424.26" y1="3074.24" x2="-3418.2" y2="3052.54" xlink:href="#linear-gradient-36"/><linearGradient id="linear-gradient-40" x1="-3434.52" y1="3084.22" x2="-3417.14" y2="3054.63" xlink:href="#linear-gradient-36"/><linearGradient id="linear-gradient-41" x1="1305.53" y1="304.26" x2="1468.4" y2="304.26" gradientTransform="translate(-1274.21)" xlink:href="#linear-gradient"/><linearGradient id="linear-gradient-42" x1="70.64" y1="320.44" x2="179.83" y2="241.12" xlink:href="#linear-gradient-3"/><radialGradient id="radial-gradient-12" cx="5716.58" cy="321.16" r="61.47" gradientTransform="matrix(-1, 0, 0, 1, 5825.08, 0)" xlink:href="#linear-gradient-4"/><linearGradient id="linear-gradient-43" x1="21.28" y1="297.57" x2="162.51" y2="297.57" gradientUnits="userSpaceOnUse"><stop offset="0" stop-color="#861eb2"/><stop offset="0.43" stop-color="#5f27bd"/><stop offset="0.9" stop-color="#3d065f"/></linearGradient><radialGradient id="radial-gradient-13" cx="-1214.24" cy="-3390.23" r="65.92" gradientTransform="matrix(0, 1.08, -0.44, 0, -1412.4, 1635.89)" xlink:href="#radial-gradient-4"/><radialGradient id="radial-gradient-14" cx="-252.27" cy="-1259.63" r="25.29" gradientTransform="matrix(0.53, -0.22, 0.25, 0.61, 568.52, 1066.4)" xlink:href="#radial-gradient-3"/><linearGradient id="linear-gradient-44" x1="134.3" y1="316.91" x2="158.49" y2="346.32" xlink:href="#linear-gradient-3"/><linearGradient id="linear-gradient-45" x1="136.62" y1="319.73" x2="173.19" y2="355.18" xlink:href="#linear-gradient-3"/><radialGradient id="radial-gradient-15" cx="7698.45" cy="327.63" r="7.87" gradientTransform="matrix(-1, 0, 0, 1, 7839.92, 0)" xlink:href="#linear-gradient-4"/><radialGradient id="radial-gradient-16" cx="7684.73" cy="317.32" r="3.63" gradientTransform="matrix(-1, 0, 0, 1, 7839.92, 0)" xlink:href="#linear-gradient-4"/><radialGradient id="radial-gradient-17" cx="7712.29" cy="333.32" r="3.63" gradientTransform="matrix(-1, 0, 0, 1, 7839.92, 0)" xlink:href="#linear-gradient-4"/><linearGradient id="linear-gradient-46" x1="7700.45" y1="330.46" x2="7696.57" y2="318.06" gradientTransform="matrix(-1, 0, 0, 1, 7839.92, 0)" xlink:href="#linear-gradient-3"/><linearGradient id="linear-gradient-47" x1="16.31" y1="327.2" x2="184.56" y2="327.2" xlink:href="#linear-gradient"/><linearGradient id="linear-gradient-48" x1="16.31" y1="316.96" x2="184.56" y2="316.96" xlink:href="#linear-gradient"/><radialGradient id="radial-gradient-18" cx="-389.78" cy="-1408.69" r="78.87" gradientTransform="matrix(0.64, 0, 0, 0.66, 316.92, 1196.05)" xlink:href="#radial-gradient-3"/><linearGradient id="linear-gradient-49" x1="210.58" y1="181.51" x2="199.33" y2="141.76" gradientTransform="translate(111.2 -81.36) rotate(30.31)" gradientUnits="userSpaceOnUse"><stop offset="0.04" stop-color="#ffba78"/><stop offset="0.4" stop-color="#ffc987"/><stop offset="1" stop-color="#feeca8"/></linearGradient><linearGradient id="linear-gradient-50" x1="230.18" y1="252.83" x2="201.68" y2="167.08" xlink:href="#linear-gradient-21"/><radialGradient id="radial-gradient-19" cx="246.93" cy="167.92" r="44.73" gradientTransform="matrix(1, 0, 0, 1, 0, 0)" xlink:href="#radial-gradient"/><linearGradient id="linear-gradient-51" x1="68.62" y1="314.35" x2="76.62" y2="279.85" xlink:href="#linear-gradient-9"/><linearGradient id="linear-gradient-52" x1="107.79" y1="310.49" x2="99.04" y2="283.49" xlink:href="#linear-gradient-9"/><radialGradient id="radial-gradient-20" cx="727.28" cy="5851.99" r="3.2" gradientTransform="translate(4902.43 -3134.12) rotate(61.68)" gradientUnits="userSpaceOnUse"><stop offset="0.1" stop-color="#8493ba"/><stop offset="0.21" stop-color="#606c90"/><stop offset="0.33" stop-color="#444d6e"/><stop offset="0.43" stop-color="#303756"/><stop offset="0.53" stop-color="#232a47"/><stop offset="0.62" stop-color="#1f2542"/><stop offset="0.71" stop-color="#242a49"/><stop offset="0.83" stop-color="#34395b"/><stop offset="0.98" stop-color="#4d5179"/><stop offset="0.98" stop-color="#4d517a"/></radialGradient><linearGradient id="linear-gradient-53" x1="721.83" y1="5843.54" x2="733.5" y2="5843.54" gradientTransform="translate(4902.43 -3134.12) rotate(61.68)" gradientUnits="userSpaceOnUse"><stop offset="0" stop-color="#7d62b8"/><stop offset="0.13" stop-color="#9039b1"/><stop offset="0.25" stop-color="#9f19ab"/><stop offset="0.29" stop-color="#89169c"/><stop offset="0.36" stop-color="#5e1080"/><stop offset="0.43" stop-color="#3c0b6a"/><stop offset="0.5" stop-color="#24085a"/><stop offset="0.56" stop-color="#150650"/><stop offset="0.62" stop-color="#10054d"/><stop offset="0.67" stop-color="#150754"/><stop offset="0.75" stop-color="#230e66"/><stop offset="0.84" stop-color="#391985"/><stop offset="0.93" stop-color="#5526ab"/><stop offset="0.96" stop-color="#4d1ba4"/><stop offset="1" stop-color="#4916a1"/></linearGradient><linearGradient id="linear-gradient-54" x1="721.36" y1="5822.32" x2="733.58" y2="5822.32" xlink:href="#linear-gradient-53"/><linearGradient id="linear-gradient-55" x1="2210.68" y1="5165.8" x2="2232.53" y2="5167.28" gradientTransform="translate(5305.92 -1963.46) rotate(90)" gradientUnits="userSpaceOnUse"><stop offset="0" stop-color="#d6dae6"/><stop offset="0.01" stop-color="#d4d8e6"/><stop offset="0.28" stop-color="#b4b8e3"/><stop offset="0.4" stop-color="#9a9fc8"/><stop offset="0.53" stop-color="#838ab0"/><stop offset="0.65" stop-color="#757da1"/><stop offset="0.76" stop-color="#70789c"/><stop offset="0.85" stop-color="#777ea2"/><stop offset="0.99" stop-color="#898eb3"/><stop offset="1" stop-color="#8b90b5"/></linearGradient><linearGradient id="linear-gradient-56" x1="721.42" y1="5779.1" x2="733.22" y2="5779.1" gradientTransform="translate(4902.43 -3134.12) rotate(61.68)" gradientUnits="userSpaceOnUse"><stop offset="0.01" stop-color="#c1a1d5"/><stop offset="0.05" stop-color="#c8abda"/><stop offset="0.11" stop-color="#dac6e6"/><stop offset="0.2" stop-color="#f7f2f9"/><stop offset="0.22" stop-color="#fff"/><stop offset="0.25" stop-color="#f9f5fb"/><stop offset="0.3" stop-color="#e9dbf2"/><stop offset="0.36" stop-color="#d1b4e3"/><stop offset="0.43" stop-color="#b395d6"/><stop offset="0.49" stop-color="#9c7dcb"/><stop offset="0.56" stop-color="#8e6ec5"/><stop offset="0.61" stop-color="#8969c3"/><stop offset="0.76" stop-color="#9471c6"/><stop offset="1" stop-color="#b086cc"/></linearGradient><linearGradient id="linear-gradient-57" x1="2188.9" y1="5121.14" x2="2206.61" y2="5122.34" gradientTransform="translate(5305.92 -1963.46) rotate(90)" xlink:href="#linear-gradient-56"/><radialGradient id="radial-gradient-21" cx="181.44" cy="234.08" r="3.72" gradientUnits="userSpaceOnUse"><stop offset="0" stop-color="#b4299a"/><stop offset="0.12" stop-color="#8a2076"/><stop offset="0.26" stop-color="#601652"/><stop offset="0.4" stop-color="#3e0e35"/><stop offset="0.55" stop-color="#23081e"/><stop offset="0.69" stop-color="#0f030d"/><stop offset="0.84" stop-color="#040103"/><stop offset="1"/></radialGradient><radialGradient id="radial-gradient-22" cx="12.54" cy="5011.76" r="21.08" gradientTransform="matrix(0.74, 0.68, -0.26, 0.28, 1383.29, -1137.89)" gradientUnits="userSpaceOnUse"><stop offset="0"/><stop offset="1" stop-color="#fff"/></radialGradient><radialGradient id="radial-gradient-23" cx="12.74" cy="5015.65" r="9.4" xlink:href="#radial-gradient-22"/><radialGradient id="radial-gradient-24" cx="1846.78" cy="-7044.02" r="12.83" gradientTransform="matrix(1.44, -0.76, 0.1, 0.18, -1831.4, 2926.82)" gradientUnits="userSpaceOnUse"><stop offset="0" stop-color="#fff"/><stop offset="0.13" stop-color="#ff63ce"/><stop offset="1"/></radialGradient><linearGradient id="linear-gradient-58" x1="114.91" y1="265.31" x2="120.73" y2="275.54" gradientTransform="translate(142.29 -23.06) rotate(28.56)" xlink:href="#linear-gradient-53"/><radialGradient id="radial-gradient-25" cx="118.59" cy="287.46" r="30.35" xlink:href="#radial-gradient-21"/><radialGradient id="radial-gradient-26" cx="-9780.61" cy="5300.07" r="7.68" gradientTransform="matrix(0.15, 0.19, -0.78, 0.62, 5742.74, -1134.09)" gradientUnits="userSpaceOnUse"><stop offset="0" stop-color="#742a97"/><stop offset="0.04" stop-color="#6a268a"/><stop offset="0.19" stop-color="#4a1b60"/><stop offset="0.35" stop-color="#2f113d"/><stop offset="0.51" stop-color="#1b0a23"/><stop offset="0.67" stop-color="#0c040f"/><stop offset="0.83" stop-color="#030104"/><stop offset="1"/></radialGradient><radialGradient id="radial-gradient-27" cx="-12828.6" cy="6855.68" r="7.68" gradientTransform="matrix(0.04, 0.14, -0.82, 0.25, 6273.14, 383.04)" xlink:href="#radial-gradient-26"/><linearGradient id="linear-gradient-59" x1="158.11" y1="112.5" x2="188.34" y2="77.23" gradientUnits="userSpaceOnUse"><stop offset="0" stop-color="#b086cc"/><stop offset="0.04" stop-color="#a37cbd"/><stop offset="0.17" stop-color="#785b8b"/><stop offset="0.3" stop-color="#533f60"/><stop offset="0.44" stop-color="#35283e"/><stop offset="0.57" stop-color="#1e1723"/><stop offset="0.71" stop-color="#0d0a0f"/><stop offset="0.85" stop-color="#030204"/><stop offset="1"/></linearGradient><linearGradient id="linear-gradient-60" x1="198.35" y1="129.03" x2="230.68" y2="113.36" gradientUnits="userSpaceOnUse"><stop offset="0" stop-color="#9f79c8"/><stop offset="0.14" stop-color="#a580cb"/><stop offset="0.33" stop-color="#b492d3"/><stop offset="0.55" stop-color="#cdb0e1"/><stop offset="0.58" stop-color="#d1b4e3"/><stop offset="0.76" stop-color="#dbc4e9"/><stop offset="1" stop-color="#ebdef3"/></linearGradient><linearGradient id="linear-gradient-61" x1="113.71" y1="133.89" x2="196.34" y2="78.33" xlink:href="#linear-gradient-60"/><linearGradient id="linear-gradient-62" x1="180.66" y1="59.77" x2="160.39" y2="89.37" xlink:href="#linear-gradient-60"/><radialGradient id="radial-gradient-28" cx="56.84" cy="253.21" r="47.61" gradientTransform="matrix(1, 0, 0, 1, 0, 0)" xlink:href="#radial-gradient"/><radialGradient id="radial-gradient-29" cx="63.12" cy="245.65" r="14.7" gradientTransform="translate(284.28 121.49) rotate(75.1)" xlink:href="#radial-gradient-8"/></defs><g class="cls-1"><g id="Capa_2" data-name="Capa 2"><g id="Layer_1" data-name="Layer 1"><ellipse class="cls-2" cx="198.43" cy="186.36" rx="182.71" ry="186.36"/><path class="cls-3" d="M284.46,291.37c0,1.93-1.4,4-4.15,5.56l-39.81,38c-5,2.9-12.65,3.22-17,.7l-72.41-42.05c-2.1-1.22-3.06-2.88-2.92-4.59a2.36,2.36,0,0,0,0,.3v5.47c0,1.57,1,3.06,2.94,4.19L223.49,341c4.36,2.52,12,2.2,17-.71l39.81-38c2.79-1.62,4.2-3.69,4.16-5.64C284.46,296.33,284.52,292.72,284.46,291.37Z"/><g class="cls-4"><path class="cls-5" d="M230.88,340.3a20.86,20.86,0,0,1-10.43-2.52l-72.41-42c-3.8-2.2-6-5.67-6-9.53,0-4.23,2.63-8.18,7.21-10.82l63.54-24.45a25.77,25.77,0,0,1,12.67-3.21,20.82,20.82,0,0,1,10.42,2.51l48.67,28.51c3.8,2.2,6,5.67,6,9.53,0,4.23-2.63,8.18-7.2,10.82l-39.81,38A25.71,25.71,0,0,1,230.88,340.3Z"/><path class="cls-6" d="M149.54,275.86l63.55-24.45a25.25,25.25,0,0,1,12.6-3.13,23.44,23.44,0,0,1,5.5.71,20.08,20.08,0,0,1,4.82,1.94l47,27.52s1.39.82,1.42.85a10.11,10.11,0,0,1,5.21,9.48c-.21,3.84-3.11,8.11-7.27,10.52l-39.08,37.3a25.05,25.05,0,0,1-12.36,3.14,20.26,20.26,0,0,1-10.18-2.44l-72.41-42.05c-3.65-2.11-5.72-5.42-5.7-9.09C142.63,282.15,145.15,278.39,149.54,275.86Z"/><path class="cls-7" d="M149.82,276.34l63.55-24.45a24.53,24.53,0,0,1,12.54-3,23.4,23.4,0,0,1,5.45.79,22.83,22.83,0,0,1,4.76,2L282.84,279c.09.05,1.34.79,1.41.85a9.26,9.26,0,0,1,4.44,9.42c-.38,3.44-3.59,8.06-7.33,10.23L243,336.12a24.57,24.57,0,0,1-12.05,3.07,19.82,19.82,0,0,1-9.93-2.36L148.6,294.77c-3.51-2-5.46-5.17-5.43-8.65C143.21,282.33,145.61,278.77,149.82,276.34Z"/><path class="cls-8" d="M150.1,276.81l63.54-24.44a24.1,24.1,0,0,1,12.49-3,23.36,23.36,0,0,1,5.4.88,27.35,27.35,0,0,1,4.7,2.05l46.46,27.22c.14.08,1.3.78,1.4.87,3.55,2.29,4.28,5.69,3.67,9.36-.51,3-4.07,8-7.4,9.92l-37.64,35.93a24.13,24.13,0,0,1-11.75,3,19.37,19.37,0,0,1-9.69-2.29l-72.41-42.06c-3.35-1.93-5.2-4.93-5.14-8.21C143.78,282.51,146.07,279.14,150.1,276.81Z"/><path class="cls-9" d="M150.37,277.29l63.55-24.44A23.54,23.54,0,0,1,226.35,250a22.61,22.61,0,0,1,5.34,1,31.31,31.31,0,0,1,4.65,2.11l46.21,27.07c.18.1,1.25.75,1.38.87,3.47,2.33,4.52,5.91,2.9,9.3,0,2.69-4.55,7.95-7.46,9.63l-36.93,35.24A23.44,23.44,0,0,1,231,338.08a18.77,18.77,0,0,1-9.43-2.21l-72.41-42.06c-3.2-1.85-4.94-4.68-4.87-7.77C144.35,282.69,146.53,279.51,150.37,277.29Z"/><path class="cls-10" d="M150.65,277.77l63.54-24.44a23,23,0,0,1,12.38-2.78,22.05,22.05,0,0,1,5.29,1,39.54,39.54,0,0,1,4.59,2.16l45.95,26.92c.23.13,1.2.73,1.37.88,3.39,2.37,4.16,6,2.12,9.25,0,2.3-5,7.89-7.52,9.33l-36.21,34.55A22.83,22.83,0,0,1,231,337.53a18.42,18.42,0,0,1-9.19-2.14l-72.4-42.05c-3.06-1.77-4.68-4.44-4.59-7.34C144.93,282.87,147,279.88,150.65,277.77Z"/><path class="cls-11" d="M150.92,278.25l63.55-24.44a22.47,22.47,0,0,1,12.32-2.7,22,22,0,0,1,5.24,1.13,48.8,48.8,0,0,1,4.53,2.22l45.7,26.77a15,15,0,0,1,1.35.88c3.31,2.4,3.79,6,1.35,9.19,0,1.92-5.5,7.83-7.58,9l-35.49,33.87A22.5,22.5,0,0,1,231.05,337a17.88,17.88,0,0,1-8.94-2.07L149.7,292.86c-2.9-1.68-4.42-4.19-4.31-6.9C145.5,283.05,147.45,280.25,150.92,278.25Z"/><path class="cls-12" d="M151.2,278.73l63.55-24.45a22,22,0,0,1,12.26-2.6,21.61,21.61,0,0,1,5.18,1.21c.64.21,4,2,4.48,2.27l45.44,26.62a14.16,14.16,0,0,1,1.34.89c3.23,2.44,3.43,6.09.58,9.14,0,1.54-6,7.77-7.65,8.73l-34.77,33.19a21.91,21.91,0,0,1-10.53,2.7,17.39,17.39,0,0,1-8.69-2L150,292.38c-2.76-1.59-4.16-3.94-4-6.46C146.07,283.24,147.92,280.62,151.2,278.73Z"/><path class="cls-13" d="M151.48,279.21,215,254.76a21.65,21.65,0,0,1,12.21-2.52,21.17,21.17,0,0,1,5.13,1.3c.48.17,4,2.1,4.42,2.33L282,282.34a12.63,12.63,0,0,1,1.32.89c3.15,2.47,3.06,6.15-.19,9.08,0,1.16-6.47,7.72-7.71,8.44l-34.06,32.5a21.18,21.18,0,0,1-10.22,2.62,16.73,16.73,0,0,1-8.45-1.92L150.25,291.9c-2.6-1.5-3.89-3.69-3.75-6S148.38,281,151.48,279.21Z"/><path class="cls-14" d="M151.75,279.69l63.55-24.45a21,21,0,0,1,12.15-2.43,20.64,20.64,0,0,1,5.08,1.38c.31.12,4.1,2.23,4.36,2.38l44.93,26.32a10.39,10.39,0,0,1,1.31.91c3.06,2.5,2.7,6.2-1,9,0,.77-6.95,7.66-7.78,8.14l-33.33,31.81a20.75,20.75,0,0,1-9.92,2.55,16.32,16.32,0,0,1-8.2-1.84l-72.41-42.06c-2.46-1.42-3.63-3.44-3.48-5.58S148.84,281.37,151.75,279.69Z"/><path class="cls-15" d="M152,280.16l63.55-24.44a20.6,20.6,0,0,1,12.08-2.35,21,21,0,0,1,5,1.47c.15.06,4.17,2.36,4.3,2.44l44.67,26.17a8.27,8.27,0,0,1,1.3.91c3,2.54,2.33,6.26-1.73,9,0,.39-7.43,7.61-7.84,7.85l-32.62,31.12a20.25,20.25,0,0,1-9.61,2.48,15.81,15.81,0,0,1-7.95-1.77l-72.41-42.06c-2.31-1.33-3.38-3.19-3.2-5.14S149.3,281.74,152,280.16Z"/><path d="M223.49,332.52l-72.41-42.06c-4.36-2.51-3.81-6.91,1.22-9.82l63.55-24.44c5-2.91,12.65-3.22,17-.71L281.53,284c4.36,2.52,3.81,6.92-1.22,9.83l-39.81,38C235.47,334.72,227.85,335,223.49,332.52Z"/></g><path class="cls-16" d="M223.49,332.42l-72.41-42.06c-1.94-1.12-2.91-2.61-2.94-4.18v-5.47c0-1.91,1.45,1.4,4.16-.17l63.55-24.44c5-2.91,12.65-3.23,17-.71l48.67,28.51c1.45.84,2.51-2.72,2.89-1.59.12.38,0,5.38.05,5.77,0,2-1.37,4-4.16,5.65l-39.81,38C235.47,334.62,227.85,334.93,223.49,332.42Z"/><path class="cls-17" d="M223.49,327.05,151.08,285c-4.36-2.51-3.81-6.91,1.22-9.82l63.55-24.44c5-2.91,12.65-3.22,17-.71l48.67,28.51c4.36,2.52,3.81,6.92-1.22,9.83l-39.81,38C235.47,329.25,227.85,329.57,223.49,327.05Z"/><path class="cls-18" d="M281.53,278.53,232.86,250c-4.36-2.51-12-2.2-17,.71l-32,12.31a8.6,8.6,0,0,0,1,.69l72.41,42a12.36,12.36,0,0,0,3.46,1.29l19.61-18.71C285.34,285.45,285.89,281.05,281.53,278.53Z"/><path class="cls-19" d="M280.31,287.44l-39.81,38c-5,2.91-12.65,3.22-17,.71l-72.41-42.06a5.2,5.2,0,0,1-2.91-3.86c-.22,1.78.73,3.51,2.91,4.77l72.41,42.06c4.36,2.52,12,2.2,17-.71l39.81-38c2.94-1.7,4.34-3.91,4.13-6C284.21,284.17,282.82,286,280.31,287.44Z"/><ellipse class="cls-20" cx="234.21" cy="331.21" rx="20.42" ry="23.86" transform="translate(-108.32 113.88) rotate(-22.34)"/><ellipse class="cls-21" cx="215.98" cy="322.68" rx="35.76" ry="88.25" transform="translate(-158.59 424.97) rotate(-71.48)"/><path class="cls-22" d="M318.09,327.28,140.26,224.53c-9.09-5.25-16.46-19.34-16.46-31.46v-136c0-12.13,7.37-17.7,16.46-12.45L318.09,147.38c9.1,5.25,16.47,19.33,16.47,31.45v136C334.56,327,327.19,332.53,318.09,327.28Z"/><path class="cls-23" d="M320.21,317.81,144.89,216.52c-7.32-4.65-11.84-13.94-11.84-23.45V56.17a2.91,2.91,0,0,1,4.39-2.51l.52.3L313.47,155.38c8.71,5,11.84,13.94,11.84,23.45V315.3A3.15,3.15,0,0,1,320.6,318Z"/><path class="cls-24" d="M313.47,155.38,138,54l-.52-.3a2.91,2.91,0,0,0-4.39,2.51v136.9c0,9.51,4.52,18.8,11.84,23.45L320.21,317.81l.39.22a3.15,3.15,0,0,0,4.71-2.73V178.83C325.31,169.32,322.18,160.4,313.47,155.38Zm10,159.92a1.31,1.31,0,0,1-1.31,1.3,1.36,1.36,0,0,1-.64-.17L145.81,214.92c-6.6-4.2-10.92-12.79-10.92-21.85V56.17A1.08,1.08,0,0,1,136,55.1a1.1,1.1,0,0,1,.54.15L312.54,157c9,5.2,10.92,14.76,10.92,21.85Z"/><path class="cls-25" d="M322.76,144.9,144.93,42.14c-3.6-2.07-6.93-2.46-9.64-1.41-.34.13-4.93,2.57-5.25,2.75h0c2.82-1.36,6.37-1.11,10.25,1.13L318.09,147.38c9.1,5.25,16.47,19.33,16.47,31.45v136c0,7.56-2.88,12.57-7.24,14a2.74,2.74,0,0,0,1.44-.49c.21-.12,5.19-2.93,5.39-3.07,3.12-2.19,5.07-6.69,5.07-12.92v-136C339.22,164.23,331.85,150.15,322.76,144.9Z"/><path class="cls-26" d="M318.88,147,141.05,44.23c-3.73-2.16-7.15-2.46-9.91-1.27a12.2,12.2,0,0,1,7.94,1.86L316.91,147.57c9.09,5.25,16.46,19.34,16.46,31.46V315c0,7.16-2.58,12-6.55,13.72,5.08-.81,8.53-6,8.53-14.31v-136C335.35,166.31,328,152.23,318.88,147Z"/><ellipse class="cls-27" cx="331.16" cy="160.48" rx="18.63" ry="23.86" transform="translate(-36.15 137.92) rotate(-22.34)"/><ellipse class="cls-28" cx="151.74" cy="103.96" rx="64.23" ry="66.67" transform="translate(-28.13 65.48) rotate(-22.34)"/><circle class="cls-29" cx="305.78" cy="114.32" r="14.7" transform="translate(116 379.93) rotate(-74.95)"/><circle class="cls-30" cx="233.29" cy="350.75" r="14.7" transform="translate(-161.9 496.62) rotate(-76.63)"/><path class="cls-31" d="M357.09,301.12h-1v-136c0-11.94-7.28-25.86-16.22-31L162.06,31.33l.49-.85L340.38,133.24c9.21,5.32,16.71,19.62,16.71,31.87Z"/><path class="cls-32" d="M230.88,351.27a15.64,15.64,0,0,1-7.63-1.75l-72.41-42.06.49-.85,72.41,42.06c4.2,2.42,11.58,2.12,16.47-.68L280,310.05l.67.7-39.89,38.06A20.27,20.27,0,0,1,230.88,351.27Z"/><polygon class="cls-33" points="157.1 199.53 137.11 187.89 115.03 200.47 115.03 222.44 134.96 233.95 134.96 233.96 134.97 233.96 134.99 233.96 134.99 233.95 157.1 221.5 157.1 199.53"/><g class="cls-34"><polygon class="cls-35" points="134.96 212.17 134.96 233.96 144.02 228.74 144.02 206.77 134.96 212.17"/><polygon class="cls-36" points="134.99 212.17 134.99 233.96 115.03 222.44 115.03 200.47 134.99 212.17"/><polygon class="cls-37" points="115.03 200.47 134.99 212.17 144.02 206.77 124.02 195.13 115.03 200.47"/></g><polygon class="cls-38" points="157.1 171.04 137.11 159.41 115.03 171.99 115.03 193.95 134.96 205.47 134.96 205.48 134.97 205.47 134.99 205.48 134.99 205.47 157.1 193.01 157.1 171.04"/><g class="cls-34"><polygon class="cls-39" points="134.96 183.69 134.96 205.48 144.02 200.25 144.02 178.29 134.96 183.69"/><polygon class="cls-40" points="134.99 183.69 134.99 205.48 115.03 193.95 115.03 171.99 134.99 183.69"/><polygon class="cls-41" points="115.03 171.99 134.99 183.69 144.02 178.29 124.02 166.65 115.03 171.99"/></g><polygon class="cls-42" points="157.1 142.29 137.11 130.66 115.03 143.24 115.03 165.2 134.96 176.72 134.96 176.73 134.97 176.72 134.99 176.73 134.99 176.72 157.1 164.26 157.1 142.29"/><g class="cls-34"><polygon class="cls-43" points="134.96 154.94 134.96 176.73 144.02 171.5 144.02 149.54 134.96 154.94"/><polygon class="cls-44" points="134.99 154.94 134.99 176.73 115.03 165.2 115.03 143.24 134.99 154.94"/><polygon class="cls-45" points="115.03 143.24 134.99 154.94 144.02 149.54 124.02 137.9 115.03 143.24"/></g><polygon class="cls-46" points="130.51 169.98 119.34 163.53 119.34 150.72 130.51 157.17 130.51 169.98"/><path class="cls-46" d="M131.59,192.46c0,3.95-2.79,5.54-6.23,3.55a13.72,13.72,0,0,1-6.22-10.74c0-4,2.79-5.53,6.22-3.55A13.72,13.72,0,0,1,131.59,192.46Z"/><polygon class="cls-46" points="121.53 222.37 118.02 213.38 121.53 208.43 128.54 212.48 132.05 221.47 128.54 226.42 121.53 222.37"/><polygon class="cls-47" points="324.36 258.44 304.36 246.81 282.28 259.39 282.28 281.35 302.21 292.87 302.21 292.88 302.22 292.87 302.24 292.88 302.24 292.87 324.36 280.41 324.36 258.44"/><g class="cls-34"><polygon class="cls-48" points="302.21 271.09 302.21 292.88 311.27 287.65 311.27 265.69 302.21 271.09"/><polygon class="cls-49" points="302.24 271.09 302.24 292.88 282.28 281.35 282.28 259.39 302.24 271.09"/><polygon class="cls-50" points="282.28 259.39 302.24 271.09 311.27 265.69 291.27 254.05 282.28 259.39"/></g><polygon class="cls-51" points="324.36 219.19 304.36 207.56 282.28 220.14 282.28 242.1 302.21 253.62 302.21 253.63 302.22 253.62 302.24 253.63 302.24 253.62 324.36 241.16 324.36 219.19"/><g class="cls-34"><polygon class="cls-52" points="302.21 231.84 302.21 253.63 311.27 248.4 311.27 226.44 302.21 231.84"/><polygon class="cls-53" points="302.24 231.84 302.24 253.63 282.28 242.1 282.28 220.14 302.24 231.84"/><polygon class="cls-54" points="282.28 220.14 302.24 231.84 311.27 226.44 291.27 214.8 282.28 220.14"/></g><polygon class="cls-55" points="324.36 189.97 304.36 178.33 282.28 190.91 282.28 212.88 302.21 224.39 302.21 224.4 302.22 224.4 302.24 224.4 302.24 224.39 324.36 211.93 324.36 189.97"/><g class="cls-34"><polygon class="cls-56" points="302.21 202.61 302.21 224.4 311.27 219.18 311.27 197.21 302.21 202.61"/><polygon class="cls-57" points="302.24 202.61 302.24 224.4 282.28 212.88 282.28 190.91 302.24 202.61"/><polygon class="cls-58" points="282.28 190.91 302.24 202.61 311.27 197.21 291.27 185.57 282.28 190.91"/></g><polygon class="cls-59" points="324.36 160.04 304.36 148.41 282.28 160.99 282.28 182.95 302.21 194.47 302.21 194.48 302.22 194.47 302.24 194.48 302.24 194.47 324.36 182.01 324.36 160.04"/><g class="cls-34"><polygon class="cls-60" points="302.21 172.69 302.21 194.48 311.27 189.25 311.27 167.29 302.21 172.69"/><polygon class="cls-61" points="302.24 172.69 302.24 194.48 282.28 182.95 282.28 160.99 302.24 172.69"/><polygon class="cls-62" points="282.28 160.99 302.24 172.69 311.27 167.29 291.27 155.65 282.28 160.99"/></g><path class="cls-46" d="M296.45,201,286,207l-1.3,5.73,5.59,1.68,10.51-6ZM286,210.44l.55-2.43,3.07,5.3-2.37-.72Zm1-2.89,6.86-3.91,3.25,5.61-6.86,3.91Z"/><path class="cls-46" d="M295,184.84l2.09-4,2.86-1.64-4.62-8-2.87,1.63-4.55-.22a.17.17,0,0,0-.18.13l-2.5,8.5a.62.62,0,0,0,.15.51c.12.16.28.24.39.19l.18-.09-.16.12c-.1.07-.11.24,0,.43a1,1,0,0,0,0,.1.62.62,0,0,0,.33.28l8.66,2.13A.17.17,0,0,0,295,184.84ZM287,182.23l3.05-2.12c.43.48.95.7,1.3.5s.45-1.09,0-1.86-1.17-1.19-1.62-.93-.42.76-.22,1.36l-3.38,1.55,2.14-7.26,4.11.21,3.92,6.74-1.9,3.63Z"/><path class="cls-46" d="M297.15,239.72l-1.72-3a5.38,5.38,0,0,1,2.54.08,1.41,1.41,0,0,0,1-.12c1.11-.63,1-2.89-.46-4.74a3.21,3.21,0,0,0-2.58-1.49,1.28,1.28,0,0,0-1.08.92,6.06,6.06,0,0,1-1.24,2.24l-1.7-2.93-1.67.95L291,233l-4.87,2.78a2.21,2.21,0,0,0-1,1.85l-.12,1.51a.44.44,0,0,1-.07.21l-.64.87a.77.77,0,0,0,.07.78c.16.27.42.49.65.46l1-.13a.37.37,0,0,1,.22,0l1.51.69a2.22,2.22,0,0,0,2.06.07l4.89-2.79.77,1.33Zm-7.84,1.55a1.78,1.78,0,0,1-1.63-.05l-1.51-.7a1.06,1.06,0,0,0-.53-.1l-.31.05.26-.35a1,1,0,0,0,.16-.5l.13-1.51a1.76,1.76,0,0,1,.78-1.47l4.87-2.77,2.67,4.61Z"/><path class="cls-46" d="M298.29,284.79l-2.87-5a1.37,1.37,0,0,0-1.11-.8l-.84-1.45c1.26-1.19,1.14-4-.38-6.61-1.66-2.87-4.35-4.42-6-3.47s-1.66,4,0,6.9c1.52,2.62,3.91,4.13,5.57,3.65l.84,1.45a1.38,1.38,0,0,0,.15,1.36l2.87,4.95c.36.62.94,1,1.3.75l.49-.28C298.65,286.08,298.65,285.41,298.29,284.79Zm-6.23-8.69c-1.09.62-2.87-.4-4-2.29s-1.09-3.92,0-4.54,2.87.4,4,2.28S293.16,275.47,292.06,276.1Z"/><g class="cls-4"><path class="cls-5" d="M113,385.27a13,13,0,0,1-6.48-1.56L77.4,327.3a6.88,6.88,0,0,1-3.72-5.93c0-2.63,1.63-5.08,4.48-6.73l17.29-6.32a15.85,15.85,0,0,1,7.87-2,13,13,0,0,1,6.49,1.57l75.63,46.26a6.86,6.86,0,0,1,3.72,5.93c0,2.63-1.63,5.08-4.48,6.73l-63.8,16.47A16,16,0,0,1,113,385.27Z"/><path class="cls-6" d="M78.43,314.8l17.15-6.28a15.2,15.2,0,0,1,1.52-.73,16.06,16.06,0,0,1,6.29-1.27,13.38,13.38,0,0,1,5.36,1c.34.15.75.36,1.07.54l75,45.91a7.61,7.61,0,0,1,3.89,5.54c0,.06,0,.11,0,.17.23,2.53-1.28,5-4.15,6.66l-63.16,16.31a17.27,17.27,0,0,1-7.8,2,12.34,12.34,0,0,1-6.86-1.38l-28.85-55.9a7.66,7.66,0,0,1-3.64-5.63,2.66,2.66,0,0,1,0-.28C74.05,318.92,75.57,316.45,78.43,314.8Z"/><path class="cls-7" d="M78.7,315l17-6.24c.4-.22,1.08-.52,1.51-.71a16,16,0,0,1,6.24-1.29,13.13,13.13,0,0,1,5.31,1c.3.13.76.38,1,.54l74.45,45.54c1.89,1.1,3.83,3.44,4.06,5.33a.76.76,0,0,0,0,.16c.45,2.44-1,4.93-3.83,6.6L122,382.06a18.6,18.6,0,0,1-7.72,2,11.92,11.92,0,0,1-7.23-1.2L78.47,327.44a8.67,8.67,0,0,1-3.56-5.62l-.06-.28C74.42,319.1,75.82,316.62,78.7,315Z"/><path class="cls-8" d="M79,315.11l16.89-6.18c.35-.2,1.12-.53,1.51-.7a15.81,15.81,0,0,1,6.17-1.31,12.82,12.82,0,0,1,5.26,1c.27.12.79.4,1,.55l73.86,45.18c1.68,1,4,3.44,4.23,5.12,0,.05,0,.1,0,.15.68,2.35-.6,4.85-3.51,6.53l-61.88,16a20.51,20.51,0,0,1-7.65,2,11.65,11.65,0,0,1-7.6-1L79,327.51c-1.65-.95-3.19-4-3.5-5.62a2,2,0,0,0-.07-.26C74.79,319.27,76.08,316.78,79,315.11Z"/><path class="cls-9" d="M79.25,315.27,96,309.13c.31-.17,1.17-.52,1.5-.67a15.59,15.59,0,0,1,6.12-1.34,12.61,12.61,0,0,1,5.21,1c.24.1.8.41,1,.54l73.27,44.83c1.47.84,4.36,3.41,4.4,4.9l.06.14c.9,2.26-.26,4.78-3.19,6.47l-61.24,15.81a23,23,0,0,1-7.57,1.94,11.46,11.46,0,0,1-8-.84L79.54,327.59c-1.44-.84-3.35-4.18-3.42-5.63l-.1-.25C75.16,319.45,76.33,317,79.25,315.27Z"/><path class="cls-10" d="M79.52,315.42l16.62-6.08c.26-.15,1.21-.53,1.49-.66a15.35,15.35,0,0,1,6.06-1.36,12.34,12.34,0,0,1,5.16,1c.21.09.82.44,1,.55l72.69,44.46c1.26.73,4.53,3.42,4.57,4.69,0,.05,0,.09.07.14,1.13,2.16.09,4.7-2.86,6.4l-60.6,15.65a26.43,26.43,0,0,1-7.5,1.92,11.37,11.37,0,0,1-8.35-.66L80.08,327.66c-1.24-.72-3.29-4.38-3.35-5.63l-.12-.24C75.53,319.63,76.59,317.11,79.52,315.42Z"/><path class="cls-11" d="M79.79,315.58l16.49-6c.22-.13,1.25-.52,1.48-.63a14.91,14.91,0,0,1,6-1.38,11.82,11.82,0,0,1,5.12,1c.17.07.83.45,1,.54L182,353.22c1,.6,4.71,3.41,4.74,4.47l.08.13c1.37,2.07.43,4.63-2.53,6.34l-60,15.48a30.52,30.52,0,0,1-7.42,1.91,11.32,11.32,0,0,1-8.71-.48L80.61,327.73c-1-.6-3.22-4.59-3.27-5.63l-.15-.22C75.89,319.8,76.84,317.28,79.79,315.58Z"/><path class="cls-12" d="M80.06,315.73l16.35-6c.18-.11,1.3-.53,1.49-.62a14.77,14.77,0,0,1,5.94-1.4,11.52,11.52,0,0,1,5.06,1c.14.06.85.48,1,.55l71.51,43.74c.84.49,4.88,3.42,4.91,4.27l.1.12c1.6,2,.77,4.55-2.22,6.27L124.85,379a37.62,37.62,0,0,1-7.34,1.88c-2.89,1.15-6.72,1.08-9.09-.29L81.15,327.8c-.83-.47-3.16-4.79-3.2-5.62l-.17-.22C76.25,320,77.1,317.44,80.06,315.73Z"/><path class="cls-13" d="M80.33,315.89,96.55,310c.13-.08,1.34-.53,1.48-.59a14.35,14.35,0,0,1,5.88-1.43,11.34,11.34,0,0,1,5,1.05c.1,0,.86.49.95.55l70.92,43.38c.63.36,5.06,3.41,5.07,4l.12.11c1.83,1.88,1.12,4.48-1.89,6.21l-58.68,15.15a48.11,48.11,0,0,1-7.27,1.87c-3,1.32-7,1.31-9.46-.11l-27-52.32c-.62-.35-3.09-5-3.12-5.62l-.2-.2C76.62,320.16,77.35,317.61,80.33,315.89Z"/><path class="cls-14" d="M80.6,316.05l16.09-5.9c.09,0,1.38-.52,1.47-.57a14.45,14.45,0,0,1,5.82-1.45,11.14,11.14,0,0,1,5,1.05l.93.55,70.33,43c.42.24,5.23,3.42,5.24,3.84l.13.11c2.07,1.78,1.47,4.39-1.56,6.14l-58,15a73.69,73.69,0,0,1-7.2,1.85c-3,1.48-7.29,1.54-9.83.08L82.22,327.94a30.9,30.9,0,0,1-3-5.62l-.22-.19C77,320.34,77.61,317.77,80.6,316.05Z"/><path class="cls-15" d="M80.87,316.2l16-5.84s1.42-.53,1.47-.56a14.14,14.14,0,0,1,5.76-1.47,11,11,0,0,1,4.92,1.05l.92.56,69.74,42.66c.21.12,5.41,3.41,5.41,3.62l.15.11c2.3,1.68,1.81,4.31-1.24,6.07l-57.41,14.82c-.2.12-6.85,1.84-7.11,1.84-3.07,1.64-7.58,1.77-10.21.26L82.75,328a61.74,61.74,0,0,1-3-5.63,2.2,2.2,0,0,1-.25-.17C77.34,320.53,77.86,317.94,80.87,316.2Z"/><path d="M109.5,378.88,80.38,322.46c-2.71-1.56-2.37-4.3.76-6.1L98.43,310c3.13-1.81,7.87-2,10.58-.44l75.63,46.27c2.72,1.56,2.38,4.3-.76,6.1l-63.8,16.48C117,380.25,112.21,380.44,109.5,378.88Z"/></g><polygon class="cls-63" points="160.13 373.08 74.52 311.61 100.56 299.56 186.17 361.02 160.13 373.08"/><polygon class="cls-64" points="95.35 323.24 85.68 316.3 106.09 306.85 115.76 313.79 95.35 323.24"/><polygon class="cls-65" points="108.02 332.34 98.35 325.4 118.76 315.95 128.43 322.89 108.02 332.34"/><polygon class="cls-66" points="120.7 341.44 111.03 334.5 131.44 325.05 141.11 331.99 120.7 341.44"/><polygon class="cls-67" points="133.37 350.54 123.7 343.6 144.11 334.15 153.78 341.09 133.37 350.54"/><polygon class="cls-68" points="146.04 359.64 136.37 352.69 156.78 343.25 166.45 350.19 146.04 359.64"/><polygon class="cls-69" points="158.71 368.74 149.04 361.79 169.45 352.34 179.12 359.29 158.71 368.74"/><polygon class="cls-70" points="160.13 373.08 74.52 311.61 100.56 299.56 167.38 369.71 160.13 373.08"/><polygon class="cls-71" points="135 378.14 70.57 308.63 100.07 299.59 164.5 369.1 135 378.14"/><polygon class="cls-72" points="87.32 322.28 80.04 314.43 103.16 307.34 110.44 315.19 87.32 322.28"/><polygon class="cls-73" points="96.86 332.57 89.58 324.72 112.7 317.63 119.98 325.48 96.86 332.57"/><polygon class="cls-74" points="106.39 342.86 99.12 335 122.24 327.92 129.51 335.77 106.39 342.86"/><polygon class="cls-75" points="115.93 353.14 108.65 345.29 131.77 338.21 139.05 346.06 115.93 353.14"/><polygon class="cls-76" points="125.47 363.43 118.19 355.58 141.31 348.5 148.59 356.35 125.47 363.43"/><polygon class="cls-77" points="135.01 373.72 127.73 365.87 150.85 358.79 158.13 366.64 135.01 373.72"/><polygon class="cls-78" points="135 378.14 70.57 308.63 100.07 299.59 144.13 375.46 135 378.14"/><polygon class="cls-79" points="109.22 380.97 67.6 305.95 99.48 300.16 141.1 375.18 109.22 380.97"/><polygon class="cls-80" points="79.81 321.11 75.11 312.64 100.09 308.1 104.8 316.57 79.81 321.11"/><polygon class="cls-81" points="85.97 332.22 81.27 323.74 106.25 319.2 110.95 327.68 85.97 332.22"/><polygon class="cls-82" points="92.13 343.32 87.43 334.85 112.42 330.31 117.11 338.78 92.13 343.32"/><polygon class="cls-83" points="98.29 354.43 93.59 345.95 118.58 341.41 123.28 349.89 98.29 354.43"/><polygon class="cls-84" points="104.45 365.53 99.75 357.06 124.73 352.52 129.44 360.99 104.45 365.53"/><polygon class="cls-85" points="110.61 376.64 105.91 368.16 130.9 363.62 135.59 372.1 110.61 376.64"/><g class="cls-4"><path class="cls-5" d="M117.08,356.73a13.61,13.61,0,0,1-6.76-1.63L21.19,303.87a7.16,7.16,0,0,1-3.88-6.18c0-2.75,1.7-5.31,4.67-7l50.75-29.25A16.65,16.65,0,0,1,81,259.33,13.53,13.53,0,0,1,87.71,261l89.13,51.23a7.15,7.15,0,0,1,3.88,6.18c0,2.75-1.7,5.3-4.67,7l-50.76,29.25A16.58,16.58,0,0,1,117.08,356.73Z"/><path class="cls-6" d="M73,261.58a16.34,16.34,0,0,1,8.19-2,16.18,16.18,0,0,1,3.27.39,14,14,0,0,1,3.44,1.34l88.84,51.07a6.53,6.53,0,0,1,3.58,6.11,7.39,7.39,0,0,1-.37,1.8,10.07,10.07,0,0,1-4.47,4.94l-50.12,28.89a15.34,15.34,0,0,1-2,1,17.14,17.14,0,0,1-6.06,1.15,13.31,13.31,0,0,1-6.68-1.58L21.47,303.41a6.51,6.51,0,0,1-3.56-6.12,7.44,7.44,0,0,1,.28-1.54,10,10,0,0,1,4.58-5.21Z"/><path class="cls-7" d="M73.3,261.74a15.91,15.91,0,0,1,8.18-2,15.73,15.73,0,0,1,3.24.45,15.15,15.15,0,0,1,3.4,1.39l88.57,50.9a6,6,0,0,1,3.27,6,8.11,8.11,0,0,1-.46,1.72c-.59,1.61-2.68,3.66-4.54,4.74l-49.5,28.53a19.73,19.73,0,0,1-2,1,17,17,0,0,1-6,1.18,13,13,0,0,1-6.61-1.53L21.75,303a5.92,5.92,0,0,1-3.24-6.06,9.59,9.59,0,0,1,.37-1.47c.55-1.7,2.73-3.88,4.67-5Z"/><path class="cls-8" d="M73.58,261.9A15.7,15.7,0,0,1,81.74,260a16,16,0,0,1,3.22.51,18.16,18.16,0,0,1,3.36,1.43l88.29,50.75a5.45,5.45,0,0,1,3,6,9.35,9.35,0,0,1-.56,1.64c-.57,1.41-3,3.59-4.6,4.54L125.54,353a21.43,21.43,0,0,1-2,1,16.8,16.8,0,0,1-5.87,1.22,12.7,12.7,0,0,1-6.52-1.48L22,302.49a5.4,5.4,0,0,1-2.93-6,10.9,10.9,0,0,1,.46-1.4c.54-1.49,3-3.81,4.77-4.81Z"/><path class="cls-9" d="M73.86,262.07A15.21,15.21,0,0,1,82,260.22a14.94,14.94,0,0,1,3.19.56,22.36,22.36,0,0,1,3.33,1.47l88,50.59a5,5,0,0,1,2.67,5.9,12.73,12.73,0,0,1-.67,1.55c-.54,1.22-3.22,3.51-4.67,4.34l-48.25,27.82c-.42.24-1.49.79-2,1a16.51,16.51,0,0,1-5.78,1.26,12.32,12.32,0,0,1-6.44-1.43L22.32,302c-2.46-1.41-3.31-3.67-2.61-5.94.14-.45.37-.87.55-1.33.52-1.29,3.35-3.73,4.87-4.6Z"/><path class="cls-10" d="M74.15,262.23a14.77,14.77,0,0,1,8.12-1.79,15.22,15.22,0,0,1,3.17.62,24.8,24.8,0,0,1,3.29,1.52L176.46,313c2.43,1.4,3.19,3.62,2.37,5.83-.19.5-.51.95-.76,1.47-.5,1-3.5,3.43-4.74,4.14L125.7,351.9c-.36.2-1.52.82-1.91,1a16.32,16.32,0,0,1-5.69,1.3,12.17,12.17,0,0,1-6.37-1.37L22.6,301.58c-2.45-1.42-3.18-3.67-2.29-5.89a6.8,6.8,0,0,1,.64-1.26c.29-1.15,3.66-3.65,5-4.4Z"/><path class="cls-11" d="M74.43,262.39a14.55,14.55,0,0,1,8.1-1.73,14.72,14.72,0,0,1,3.15.68,35,35,0,0,1,3.26,1.56l87.45,50.26c2.41,1.4,3.06,3.61,2.06,5.76a6.18,6.18,0,0,1-.86,1.38c-.27.92-3.77,3.36-4.8,4l-47,27.09c-.3.17-1.55.85-1.88,1a16.24,16.24,0,0,1-5.6,1.33,11.89,11.89,0,0,1-6.29-1.32L22.89,301.12c-2.45-1.42-3.06-3.67-2-5.83a6.8,6.8,0,0,1,.73-1.19c.24-1,4-3.57,5.06-4.2Z"/><path class="cls-12" d="M74.71,262.55a13.3,13.3,0,0,1,11.21-.93c.45.15,2.85,1.39,3.22,1.6l87.17,50.11c2.41,1.39,2.94,3.59,1.76,5.68a6.25,6.25,0,0,1-.95,1.3c-.22.73-4.05,3.28-4.88,3.76L125.86,350.8c-.24.14-1.59.87-1.85,1a15.78,15.78,0,0,1-5.51,1.36,11.48,11.48,0,0,1-6.2-1.26L23.17,300.66c-2.45-1.41-2.94-3.66-1.66-5.77a7,7,0,0,1,.82-1.12c.19-.77,4.29-3.5,5.16-4Z"/><path class="cls-13" d="M75,262.72a13.94,13.94,0,0,1,8.06-1.62,14.63,14.63,0,0,1,3.1.8c.34.12,2.91,1.49,3.19,1.65l86.88,49.94c2.41,1.38,2.83,3.59,1.46,5.61a6.5,6.5,0,0,1-1.05,1.22c-.16.55-4.32,3.2-4.94,3.56l-45.76,26.37c-.18.11-1.62.9-1.81,1a15.54,15.54,0,0,1-5.42,1.4,11.22,11.22,0,0,1-6.13-1.21L23.45,300.2c-2.44-1.41-2.83-3.67-1.34-5.72a7.13,7.13,0,0,1,.91-1c.15-.57,4.6-3.42,5.25-3.8Z"/><path class="cls-14" d="M75.28,262.88a13.61,13.61,0,0,1,8-1.56,14.93,14.93,0,0,1,3.07.86c.22.08,3,1.58,3.15,1.69l86.61,49.78c2.39,1.38,2.72,3.59,1.15,5.54a6.82,6.82,0,0,1-1.14,1.14c-.11.36-4.6,3.12-5,3.36l-45.14,26c-.12.06-1.65.92-1.78,1a15.31,15.31,0,0,1-5.33,1.44,11,11,0,0,1-6-1.16L23.73,299.74c-2.44-1.41-2.72-3.68-1-5.66a7.12,7.12,0,0,1,1-1c.1-.38,4.92-3.34,5.35-3.59Z"/><path class="cls-15" d="M75.56,263a13.42,13.42,0,0,1,8-1.5,14.15,14.15,0,0,1,3,.93c.11,0,3,1.67,3.11,1.72l86.33,49.62c2.39,1.38,2.61,3.6.86,5.47a7.41,7.41,0,0,1-1.25,1.06c-.05.18-4.87,3-5.07,3.16L126.1,349.16l-1.75,1a15.23,15.23,0,0,1-5.24,1.47,10.65,10.65,0,0,1-6-1.11L24,299.28c-2.44-1.41-2.62-3.69-.71-5.6a7.8,7.8,0,0,1,1.09-.9c.05-.19,5.23-3.27,5.45-3.39Z"/><path d="M113.43,350.06,24.3,298.83c-2.83-1.64-2.47-4.49.79-6.38L75.84,263.2c3.27-1.88,8.21-2.09,11-.45L176,314c2.83,1.63,2.47,4.48-.79,6.37L124.46,349.6C121.2,351.48,116.26,351.69,113.43,350.06Z"/></g><path class="cls-86" d="M125.81,349.47,176,320.54c2-1.16,3-2.7,3-4.31,0-.14,0-3.25,0-3.4-.16-1.87-1.6-.84-4.25-2.37L86.84,259.77c-5.17-3-13-3.31-17.45-.73L19.19,288c-2,1.16-3-.87-3,.74,0,.14,0,3.85,0,4,.16,1.88,1.6,3.82,4.26,5.35l87.92,50.69C113.52,351.73,121.34,352.05,125.81,349.47Z"/><path class="cls-87" d="M125.81,346.07,176,317.14c4.47-2.58,3.91-7.09-1.25-10.08L86.84,256.37c-5.17-3-13-3.31-17.45-.72l-50.2,28.93c-4.48,2.58-3.92,7.09,1.25,10.07l87.92,50.7C113.52,348.33,121.34,348.65,125.81,346.07Z"/><path class="cls-88" d="M176,316.69l-50.2,28.93c-4.47,2.59-12.29,2.26-17.45-.72L20.44,294.21c-2.72-1.57-4.16-3.57-4.27-5.48-.11,2,1.34,4.23,4.27,5.92l87.92,50.7c5.16,3,13,3.3,17.45.72L176,317.14c2.12-1.22,3.11-2.88,3-4.6C178.94,314.1,178,315.58,176,316.69Z"/><path class="cls-89" d="M171.9,308.51,84.33,258c-3.79-2.19-9.52-2.43-12.8-.53L22.38,285.81c-3.28,1.9-2.87,5.21.92,7.4l87.56,50.49c3.8,2.18,9.53,2.42,12.81.53l49.15-28.33C176.1,314,175.69,310.7,171.9,308.51Z"/><path class="cls-90" d="M162.51,304,83,258.18a12.32,12.32,0,0,0-11.17,0L23.61,286c-3.1,1.78-3.11,4.67,0,6.44l79.48,45.83Z"/><path d="M156.81,331.31l-7.1,4.1h0a4.24,4.24,0,0,1,1.76-3.37l3.58-2.06c1-.56,1.76,0,1.76,1.33Z"/><ellipse class="cls-91" cx="72.45" cy="323.5" rx="28.87" ry="71.25" transform="translate(-257.31 289.44) rotate(-71.48)"/><path class="cls-92" d="M131.46,342c3.53,8.58.43,18-6.9,21s-16.15-1.49-19.67-10.07-.43-18,6.9-21S127.94,333.42,131.46,342Z"/><path class="cls-93" d="M25.61,292.38a.25.25,0,0,1-.22-.12.25.25,0,0,1,.09-.34l2.37-1.39a.24.24,0,0,1,.34.08.26.26,0,0,1-.09.35l-2.36,1.39A.31.31,0,0,1,25.61,292.38Z"/><path class="cls-93" d="M32.39,296.28a.26.26,0,0,1-.22-.13.25.25,0,0,1,.09-.34l2.37-1.39a.25.25,0,0,1,.25.43l-2.37,1.39A.19.19,0,0,1,32.39,296.28Z"/><path class="cls-93" d="M39.17,300.17a.25.25,0,0,1-.22-.12.25.25,0,0,1,.09-.34l2.37-1.39a.25.25,0,0,1,.34.08.26.26,0,0,1-.09.35l-2.37,1.39A.27.27,0,0,1,39.17,300.17Z"/><path class="cls-93" d="M46,304.07a.26.26,0,0,1-.22-.13.25.25,0,0,1,.09-.34l2.37-1.39a.25.25,0,0,1,.25.43L46.07,304A.19.19,0,0,1,46,304.07Z"/><path class="cls-93" d="M52.73,308a.25.25,0,0,1-.22-.12.25.25,0,0,1,.09-.34L55,306.11a.25.25,0,1,1,.25.43l-2.37,1.39Z"/><path class="cls-93" d="M59.51,311.86a.27.27,0,0,1-.22-.12.26.26,0,0,1,.09-.35L61.75,310a.25.25,0,1,1,.25.43l-2.37,1.39A.19.19,0,0,1,59.51,311.86Z"/><path class="cls-93" d="M66.28,315.75a.25.25,0,0,1-.12-.46l2.37-1.39a.25.25,0,0,1,.25.43l-2.37,1.39A.28.28,0,0,1,66.28,315.75Z"/><path class="cls-93" d="M73.06,319.65a.24.24,0,0,1-.21-.12.26.26,0,0,1,.09-.35l2.37-1.39a.25.25,0,1,1,.25.43l-2.37,1.39A.2.2,0,0,1,73.06,319.65Z"/><path class="cls-93" d="M79.84,323.54a.24.24,0,0,1-.21-.12.25.25,0,0,1,.09-.34l2.37-1.39a.25.25,0,1,1,.25.43L80,323.51A.28.28,0,0,1,79.84,323.54Z"/><path class="cls-93" d="M86.62,327.44a.24.24,0,0,1-.21-.12.26.26,0,0,1,.09-.35l2.36-1.39a.26.26,0,0,1,.35.09.25.25,0,0,1-.09.34l-2.37,1.4A.28.28,0,0,1,86.62,327.44Z"/><path class="cls-93" d="M93.4,331.33a.24.24,0,0,1-.21-.12.25.25,0,0,1,.09-.34l2.36-1.39a.26.26,0,0,1,.35.09.25.25,0,0,1-.09.34l-2.37,1.39A.28.28,0,0,1,93.4,331.33Z"/><path class="cls-93" d="M100.18,335.23a.24.24,0,0,1-.21-.12.27.27,0,0,1,.08-.35l2.37-1.39a.26.26,0,0,1,.26.44l-2.37,1.39A.31.31,0,0,1,100.18,335.23Z"/><path d="M164,312.41h0a6.54,6.54,0,0,0-7-.26L117.83,335a2.75,2.75,0,0,0-.17,4.65h0a7.16,7.16,0,0,0,7.67.28l38.52-22.43A3,3,0,0,0,164,312.41Z"/><path class="cls-94" d="M164,311.27h0a6.54,6.54,0,0,0-7-.26l-39.22,22.84a2.75,2.75,0,0,0-.17,4.65h0a7.16,7.16,0,0,0,7.67.28l38.52-22.43A3,3,0,0,0,164,311.27Z"/><path d="M151.61,324.21l-8-5.48a2.3,2.3,0,0,0-2.47-.09l-9.73,5.66a1,1,0,0,0-.06,1.61l8,5.48a2.32,2.32,0,0,0,2.47.09l9.73-5.67A1,1,0,0,0,151.61,324.21Z"/><path class="cls-95" d="M151.61,323.59l-8-5.49a2.32,2.32,0,0,0-2.47-.09l-9.73,5.67a.94.94,0,0,0-.06,1.6l8,5.49a2.34,2.34,0,0,0,2.47.09l9.73-5.67A1,1,0,0,0,151.61,323.59Z"/><path class="cls-96" d="M131.33,324.73l8,5.48a2.3,2.3,0,0,0,2.47.09l9.73-5.67a.93.93,0,0,0,.43-.53,1,1,0,0,1-.43,1.09l-9.73,5.67a2.34,2.34,0,0,1-2.47-.09l-8-5.49a.93.93,0,0,1-.37-1.06A1,1,0,0,0,131.33,324.73Z"/><polygon class="cls-97" points="159.21 320.18 159.21 319 151.69 314.12 151.17 314.4 158.58 319.31 158.58 320.52 159.21 320.18"/><polygon points="158.86 320.45 158.86 319.28 151.35 314.4 150.83 314.67 158.24 319.59 158.24 320.8 158.86 320.45"/><polygon class="cls-98" points="131.65 336.17 131.65 335 124.13 330.11 123.61 330.39 131.02 335.31 131.02 336.52 131.65 336.17"/><polygon points="131.3 336.45 131.3 335.27 123.79 330.39 123.27 330.67 130.68 335.58 130.68 336.8 131.3 336.45"/><path class="cls-99" d="M146.11,323.66l-3.4-2.35a1.62,1.62,0,0,0-1.72-.07l-4.29,2.51a.78.78,0,0,0,0,1.32l3.4,2.35a1.62,1.62,0,0,0,1.72.06l4.29-2.5A.78.78,0,0,0,146.11,323.66Z"/><path class="cls-100" d="M179,318.08c-.09,1.56-1.08,3-3,4.15l-21.18,12.2,2.62,1.89L176,325.62c2-1.15,3-2.69,3-4.3C179,321.19,179,318.75,179,318.08Z"/><path class="cls-101" d="M83.23,336,20.44,299.74c-3.17-1.83-4.6-4.24-4.2-6.42a1.31,1.31,0,0,0-.07.48c0,.14,0,3.85,0,4,.16,1.87,1.6,3.81,4.26,5.35l65,37.47Z"/><ellipse class="cls-102" cx="67.67" cy="260.95" rx="50.43" ry="52.35" transform="translate(-94.11 45.31) rotate(-22.34)"/><path class="cls-103" d="M207.29,176.93c6.18,3.56,11.19.71,11.19-6.38s-5-15.72-11.19-19.29-11.18-.71-11.18,6.38S201.12,173.36,207.29,176.93Zm37.56-3.53c-10.2-5.89-17.46,37.87-28.84,31.3s-15.5-26.06-24.53-31.27c-6.24-3.6-13.39,22.11-18.44,26v.4l95.55,55.17V254C260.74,240,252.68,177.92,244.85,173.4Zm20.54,2.39v1.33l-18.63-11v-1.73l-3.83-2.21v1.69l-14.53-8.56v-1l-3.51-2v4l3.51,2V156.5l13.9,8.18a6.27,6.27,0,0,0-1.78.25c-3.66,1.13-6.42,5.76-8.85,10.71l-1.66-.95a.5.5,0,0,0-.5,0,.5.5,0,0,0-.25.43v4.39a.52.52,0,0,0,.25.44l3.83,2.21a.55.55,0,0,0,.5,0,.52.52,0,0,0,.25-.44v-4.39a.5.5,0,0,0-.25-.43l-1.31-.75c2.25-4.58,5-9.24,8.28-10.26a4.9,4.9,0,0,1,2.12-.16v.88l3.83,2.21v-1.17c3,2.72,7.34,9.33,9.89,19.86l-1.14-.65a.5.5,0,0,0-.75.43v4.39a.5.5,0,0,0,.25.43l3.83,2.21a.48.48,0,0,0,.5,0,.49.49,0,0,0,.25-.43V189.5a.49.49,0,0,0-.25-.43l-1.49-.87c-2-8.69-5.42-15.56-8.67-19.46l16.21,9.54v1.54l3.51,2v-4Zm-32.3,1.83v3.24l-2.83-1.63V176Zm25.5,12.17V193l-2.83-1.64v-3.24Z"/><ellipse class="cls-104" cx="205.79" cy="164.6" rx="9.1" ry="15.77" transform="translate(-54.94 126.36) rotate(-30.31)"/><path class="cls-105" d="M171.54,200.38l95.55,55.17v-1.07c-7.85-14-15.91-76.06-23.74-80.58-10.2-5.89-17.46,37.87-28.84,31.3S199,179.14,190,173.93c-6.24-3.6-13.39,22.11-18.44,26Z"/><path class="cls-106" d="M263.89,176.29v1.33l-18.63-11v-1.73l-3.83-2.21v1.69l-14.53-8.56v-1l-3.51-2v4l3.51,2V157l13.9,8.18a6.27,6.27,0,0,0-1.78.25c-3.66,1.13-6.42,5.76-8.85,10.71l-1.66-.95a.5.5,0,0,0-.5,0,.5.5,0,0,0-.25.43V180a.52.52,0,0,0,.25.44l3.83,2.21a.55.55,0,0,0,.5,0,.52.52,0,0,0,.25-.44v-4.39a.5.5,0,0,0-.25-.43l-1.31-.75c2.25-4.58,5-9.24,8.28-10.26a4.9,4.9,0,0,1,2.12-.16v.88l3.83,2.21v-1.17c3,2.72,7.34,9.33,9.89,19.86l-1.14-.65a.5.5,0,0,0-.75.43v4.39a.5.5,0,0,0,.25.43l3.83,2.21a.48.48,0,0,0,.5,0,.49.49,0,0,0,.25-.43V190a.49.49,0,0,0-.25-.43l-1.49-.87c-2-8.69-5.42-15.56-8.67-19.46l16.21,9.54v1.54l3.51,2v-4Zm-32.3,5.07-2.83-1.63v-3.24l2.83,1.63Zm25.5,12.17-2.83-1.64v-3.24l2.83,1.64Z"/><path class="cls-107" d="M74.6,294.6A13.82,13.82,0,0,1,67.82,293c-1.91-1.11-3-2.6-3-4.21s1-3.07,2.92-4.16a14.89,14.89,0,0,1,13.49,0c1.91,1.1,3,2.59,3,4.2s-1,3.07-2.92,4.16A13.62,13.62,0,0,1,74.6,294.6ZM74.49,284a12.64,12.64,0,0,0-6.21,1.47c-1.56.9-2.42,2.07-2.42,3.29s.88,2.42,2.46,3.34a13.83,13.83,0,0,0,12.49,0c1.56-.9,2.42-2.07,2.42-3.29s-.88-2.42-2.46-3.34A12.87,12.87,0,0,0,74.49,284Z"/><path class="cls-108" d="M85.84,317l-.88-.3,0-.3c-.19-1.24-1.92-3.71-3.6-6.1-2.45-3.5-5-7.13-4.54-9.16a1.8,1.8,0,0,1,.88-1.2c2.44-1.4,6-1.35,9.87-1.3,4.2.07,8.54.13,11.71-1.7a1.85,1.85,0,0,0,1-1.23c.49-2.17-2.29-6.2-4.53-9.43a.51.51,0,0,1,.12-.7.5.5,0,0,1,.7.13c2.47,3.57,5.27,7.62,4.69,10.22a2.83,2.83,0,0,1-1.43,1.88c-3.41,2-7.88,1.9-12.22,1.83-3.68-.05-7.16-.1-9.36,1.17a.78.78,0,0,0-.4.55c-.36,1.6,2.27,5.35,4.38,8.37,1.74,2.48,3.26,4.66,3.68,6.13l43.34-25a.51.51,0,0,1,.69.18.49.49,0,0,1-.19.68Z"/><path class="cls-109" d="M97.4,284.21c-.79.42-3.24,1-3.66.24s1.34-2.66,2.12-3.09a1.62,1.62,0,0,1,1.54,2.85Z"/><path class="cls-110" d="M111.29,281.23c4.16-2.19-1.4-12.89-5.94-10.27s-9.55,9.45-9.55,9.45h0a2.27,2.27,0,0,0-.09,2.77,2.17,2.17,0,0,0,2.37,1.45h0S107.13,283.41,111.29,281.23Z"/><path class="cls-111" d="M142.2,264.2l-5.69-10.56L105.27,271h0l0,0c-1.7.91-1.8,4-.23,6.93s4.22,4.54,5.92,3.62l0,0h0Z"/><path class="cls-112" d="M142.17,264.21c-1.69.91-4.34-.71-5.91-3.62s-1.47-6,.23-6.94,4.34.71,5.91,3.62S143.87,263.29,142.17,264.21Z"/><path class="cls-113" d="M186.46,239.2l-4.6-8.55-45.43,23.1h0l0,0c-1.7.91-1.8,4-.23,6.93s4.22,4.54,5.92,3.62l0,0h0Z"/><path class="cls-114" d="M186.45,239.21c-1.38.74-3.52-.58-4.8-2.94s-1.18-4.87.19-5.61,3.52.57,4.79,2.93S187.82,238.47,186.45,239.21Z"/><path class="cls-115" d="M181.85,236.23c-1.27-2.36-1.19-4.87.19-5.61l.09,0a1.52,1.52,0,0,0-.45.16c-1.37.74-1.46,3.25-.18,5.61s3.32,3.61,4.69,3C184.83,239.62,183,238.35,181.85,236.23Z"/><path class="cls-116" d="M144.14,311.5l-39.5-23.57s-.34-.18-.48-.23a65.23,65.23,0,0,0-9.11-3.87h0c-.63-.22-.94,0-.78.72a3.36,3.36,0,0,0,1.37,2h0s5.85,4.84,9.62,7.35a6.38,6.38,0,0,0,.64.46l0,0h0l39.67,23.81Z"/><path class="cls-117" d="M116.87,296.57,99.16,286l-.22-.11a29.36,29.36,0,0,0-4.08-1.74h0c-.28-.1-.14.86.26,1.22h0s2.62,2.17,4.31,3.29a2.64,2.64,0,0,0,.29.21h0l17.79,10.68Z"/><path class="cls-118" d="M179.24,234.52c.65,1.25-9.4,7.84-19.26,13s-18.39,8.37-19,7.13,6.81-6.45,16.67-11.63S178.59,233.28,179.24,234.52Z"/><rect class="cls-119" x="103.4" y="264.59" width="32.54" height="3.5" rx="1.25" transform="translate(-112.76 89.61) rotate(-28.56)"/><rect class="cls-120" x="106.92" y="266.72" width="19.06" height="2.59" rx="0.92" transform="translate(-113.95 88.27) rotate(-28.56)"/><path class="cls-121" d="M124.82,263.46a1.3,1.3,0,0,0-.49-.47,1.18,1.18,0,0,1,.18.21A1.3,1.3,0,0,1,124,265l-14.46,7.87a1.25,1.25,0,0,1-1.27-.05,1.26,1.26,0,0,0,1.58.31l14.46-7.87A1.3,1.3,0,0,0,124.82,263.46Z"/><path class="cls-122" d="M178.59,232.66l-72.95,38.71a5.76,5.76,0,0,0-.5.37c-4.38,2.84-9.34,8.67-9.34,8.67h0a2.27,2.27,0,0,0-.09,2.77,2.17,2.17,0,0,0,2.37,1.45h0s7.57-1,12-2.86a2.2,2.2,0,0,0,.79-.24l0,0h0L183.12,241Z"/><path class="cls-123" d="M108.25,273.64c3.69-2.9,2-5.33-2.08-2.05s-9.54,8.72-9.54,8.72h0c-.63.6-.94,1.07-.74,1.32s.53.17,1.46-.4h0S104.56,276.55,108.25,273.64Z"/><path class="cls-124" d="M110,281c3.86-1.15,3.51-2.89-.79-1.57s-10.43,3.71-10.43,3.71h0c-.7.26-1.1.5-1,.68s.33.19,1.25,0h0S106.09,282.19,110,281Z"/><polygon class="cls-125" points="230.11 96.45 145.88 47.66 115.24 65.86 115.24 94.56 199.4 143.24 199.4 143.26 199.41 143.25 199.43 143.26 199.43 143.24 230.11 125.16 230.11 96.45"/><g class="cls-34"><polygon class="cls-126" points="199.4 114.71 199.4 143.26 207.68 138.48 207.68 109.77 199.4 114.71"/><polygon class="cls-127" points="199.43 114.71 199.43 143.26 115.24 94.56 115.24 65.86 199.43 114.71"/><polygon class="cls-128" points="115.24 65.86 199.43 114.71 207.68 109.77 123.45 60.98 115.24 65.86"/></g><polygon class="cls-64" points="130.7 98.78 121 93.18 121 74.2 130.7 79.8 130.7 98.78"/><polygon class="cls-65" points="143.41 106.12 133.71 100.52 133.71 81.54 143.41 87.14 143.41 106.12"/><polygon class="cls-66" points="156.12 113.46 146.43 107.86 146.43 88.88 156.12 94.47 156.12 113.46"/><polygon class="cls-67" points="168.83 120.8 159.13 115.2 159.13 96.21 168.83 101.81 168.83 120.8"/><polygon class="cls-68" points="181.54 128.14 171.85 122.54 171.85 103.55 181.54 109.15 181.54 128.14"/><polygon class="cls-69" points="194.26 135.48 184.56 129.88 184.56 110.89 194.26 116.49 194.26 135.48"/><path class="cls-129" d="M36.43,320.26,9.53,304.75C3.47,301.25,0,295.86,0,290c0-5.52,3-10.43,8.27-13.47l87.57-50.32.5.86L8.77,277.35C3.83,280.2,1,284.79,1,290c0,5.54,3.29,10.62,9,13.93l26.9,15.51Z"/><circle class="cls-130" cx="63.12" cy="245.65" r="14.7" transform="translate(-190.5 243.47) rotate(-75.1)"/></g></g></g></svg>