<?xml version="1.0" encoding="utf-8"?>
<!-- Generator: Adobe Illustrator 26.0.0, SVG Export Plug-In . SVG Version: 6.00 Build 0)  -->
<svg version="1.1" id="Capa_1" xmlns="http://www.w3.org/2000/svg" xmlns:xlink="http://www.w3.org/1999/xlink" x="0px" y="0px"
	 viewBox="0 0 32 32" style="enable-background:new 0 0 32 32;" xml:space="preserve">
<style type="text/css">
	.st0{fill:#FFF200;}
	.st1{fill:#79BF77;}
</style>
<g>
	<g id="XMLID_00000090283717850064131900000014197616024881013926_">
		<g>
			<path class="st0" d="M30,30H2V2h28V30z M8,28.8h20.3V12.5H8V28.8z"/>
			<path class="st0" d="M27.9,24.1c0,2.4-1.9,3.7-4.4,3.7c-1.6,0-2.8-0.5-3.7-1.3c0.9,0.7,2.1,1.2,3.6,1.2c2.5,0,4.4-1.3,4.4-3.7
				c0-0.7-0.1-1.2-0.3-1.7C27.7,22.8,27.9,23.4,27.9,24.1z"/>
			<path class="st0" d="M25.1,24.6c-0.2,0.5-0.8,0.9-1.7,0.9c-0.1,0-0.2,0-0.3,0c-0.6-0.1-1.1-0.4-1.5-0.8c0.5,0.4,1,0.7,1.8,0.7
				c0.5,0,0.9-0.1,1.2-0.3C24.8,25,25,24.8,25.1,24.6z"/>
			<path class="st0" d="M24.5,25.1c0.4-0.2,0.6-0.6,0.6-1c0-0.1,0-0.2,0-0.3c0.1,0.1,0.1,0.3,0.1,0.5c0,0.1,0,0.2-0.1,0.3
				C25,24.8,24.8,25,24.5,25.1z"/>
			<path class="st0" d="M25,23.6c0,0,0.1,0.1,0.1,0.1C25,23.7,25,23.6,25,23.6z"/>
			<path class="st0" d="M26.7,21.3c-0.6-0.5-1.4-0.9-2.3-1.3c0.6,0.2,1.1,0.5,1.6,0.7C26.3,20.9,26.5,21.1,26.7,21.3z"/>
			<path class="st0" d="M24.6,17.5c0.2,0.1,0.3,0.3,0.4,0.5C24.9,17.8,24.8,17.7,24.6,17.5C24.6,17.5,24.6,17.5,24.6,17.5z"/>
			<path class="st0" d="M24.7,17.6c0.1,0.1,0.2,0.2,0.3,0.4C24.9,17.9,24.8,17.7,24.7,17.6z"/>
			<path class="st0" d="M24.3,19.9c0.6,0.2,1.2,0.5,1.7,0.8c-0.4-0.2-1-0.5-1.6-0.7l-0.7-0.3c-0.1,0-0.2-0.1-0.2-0.1
				c-0.5-0.2-0.8-0.4-1.1-0.7c0.3,0.2,0.6,0.4,1.2,0.7L24.3,19.9z"/>
			<path class="st0" d="M23.3,14.6c-0.1,0-0.2,0-0.3,0C23.1,14.6,23.2,14.6,23.3,14.6z"/>
			<path class="st0" d="M22.4,18.9c0.3,0.3,0.6,0.5,1.1,0.7C23,19.4,22.6,19.2,22.4,18.9z"/>
			<path class="st0" d="M24.4,20c0.9,0.4,1.7,0.8,2.3,1.3c0.1,0,0.1,0.1,0.2,0.1c0.2,0.2,0.3,0.4,0.4,0.6c-0.1-0.2-0.3-0.4-0.4-0.5
				c-0.1,0-0.1-0.1-0.2-0.1c-0.6-0.6-1.4-1-2.4-1.4l-0.7-0.3c-0.5-0.2-0.9-0.4-1.2-0.7l-0.1-0.1c0-0.1-0.1-0.1-0.1-0.2
				c0,0,0.1,0.1,0.1,0.1l0.1,0.1c0.2,0.3,0.6,0.5,1.1,0.7c0.1,0,0.1,0.1,0.2,0.1L24.4,20z"/>
			<path class="st0" d="M25,18.1c-0.2-0.2-0.3-0.4-0.4-0.5l-0.1-0.1c-0.3-0.3-0.6-0.4-1.1-0.4c-0.8,0-1.3,0.5-1.3,1.1
				c0,0.2,0,0.3,0.1,0.5C22.1,18.5,22,18.3,22,18c0-0.6,0.5-1.1,1.3-1.1c0.5,0,0.9,0.1,1.2,0.5l0.1,0.1c0,0,0,0,0.1,0.1
				c0.1,0.1,0.2,0.3,0.3,0.4l1.8-1.1c0-0.1-0.1-0.2-0.1-0.3s-0.1-0.2-0.1-0.2c-0.8-1.1-1.9-1.6-3.3-1.6c-1.1,0-2.1,0.4-2.8,1
				c0.7-0.7,1.7-1.1,2.9-1.1c1.4,0,2.4,0.5,3.3,1.6c-0.6-1-1.6-1.6-2.9-1.7c1.3,0.1,2.2,0.6,2.9,1.7c0,0.1,0.1,0.1,0.1,0.2
				s0.1,0.3,0.2,0.4l-2,1.3C25,18.2,25,18.1,25,18.1z"/>
			<path class="st0" d="M21.5,24.7c0.4,0.4,0.9,0.7,1.5,0.8C22.4,25.4,21.9,25.1,21.5,24.7C21.5,24.7,21.5,24.7,21.5,24.7z"/>
			<path class="st0" d="M23.9,14.6c1.2,0.1,2.2,0.6,2.9,1.7c-0.9-1.1-1.9-1.6-3.3-1.6c-1.2,0-2.2,0.4-2.9,1.1
				c-0.1,0.1-0.1,0.1-0.2,0.2c-0.3,0.3-0.5,0.6-0.6,0.9c0.5-1.2,1.6-2.1,3.2-2.2c0.1,0,0.2,0,0.3,0c0,0,0.1,0,0.1,0
				C23.5,14.6,23.7,14.6,23.9,14.6z"/>
			<path class="st0" d="M21,23.8c0.2,0.2,0.3,0.4,0.5,0.6c0.1,0.1,0.1,0.2,0.2,0.2c0.4,0.4,1,0.7,1.8,0.7c0.4,0,0.7-0.1,1-0.2
				c-0.3,0.2-0.7,0.3-1.2,0.3c-0.8,0-1.3-0.3-1.8-0.7c0,0,0,0,0,0c-0.1-0.1-0.2-0.1-0.2-0.2c-0.2-0.2-0.4-0.4-0.5-0.6
				c-0.1,0-0.1-0.1-0.1-0.1l0.2-0.1L21,23.8z"/>
			<polygon class="st0" points="20.7,23.8 20.7,23.8 18.6,25 			"/>
			<path class="st0" d="M19.5,17.9c0-0.4,0.1-0.8,0.2-1.1c0.1-0.3,0.4-0.6,0.6-0.9C19.9,16.5,19.6,17.2,19.5,17.9z"/>
			<path class="st0" d="M19.5,17.9c0,0.1,0,0.1,0,0.2c0,0,0,0,0,0C19.5,18,19.5,18,19.5,17.9z"/>
			<path class="st0" d="M19.5,18.2c0,1.1,0.4,2,1.1,2.6C19.9,20.2,19.4,19.4,19.5,18.2c-0.1-0.5,0-1,0.2-1.4
				c-0.1,0.3-0.2,0.7-0.2,1.1c0,0.1,0,0.1,0,0.2C19.5,18.1,19.5,18.1,19.5,18.2C19.5,18.2,19.5,18.2,19.5,18.2z"/>
			<path class="st0" d="M19.7,26.4c-0.1-0.1-0.2-0.2-0.3-0.3C19.5,26.2,19.6,26.3,19.7,26.4z"/>
			<path class="st0" d="M19.4,18.1c0-1.9,1.4-3.4,3.6-3.5c-1.6,0.1-2.8,1-3.2,2.2C19.5,17.2,19.4,17.7,19.4,18.1
				C19.4,18.2,19.4,18.1,19.4,18.1z"/>
			<path class="st0" d="M20.6,20.8c-0.7-0.7-1.1-1.5-1.1-2.6c0,0,0,0,0-0.1c0,1.4,0.6,2.4,1.5,3c0,0,0.1,0.1,0.2,0.1
				c0.5,0.4,1,0.7,1.7,0.9l0.6,0.3c0.8,0.4,1.4,0.6,1.7,1.1c0.1,0.1,0.1,0.3,0.1,0.5c0,0.2,0,0.4-0.2,0.6c0-0.1,0.1-0.2,0.1-0.3
				c0-0.2,0-0.3-0.1-0.5c0,0,0,0,0-0.1c0-0.1,0-0.1-0.1-0.1c-0.2-0.5-0.9-0.8-1.8-1.3l-0.6-0.2c-0.6-0.2-1.1-0.5-1.6-0.8
				c-0.1,0-0.1-0.1-0.2-0.1c-0.8-0.7-1.4-1.6-1.4-2.9c0,0,0-0.1,0-0.1C19.4,19.4,19.9,20.2,20.6,20.8z"/>
			<path class="st0" d="M19.2,25.9C19.2,25.9,19.2,25.9,19.2,25.9C19.2,25.9,19.2,25.9,19.2,25.9L19.2,25.9z"/>
			<path class="st0" d="M18.7,25.1c0.1,0.2,0.3,0.5,0.5,0.8h0C19,25.6,18.9,25.4,18.7,25.1z"/>
			<path class="st0" d="M21,21.1c-0.9-0.6-1.5-1.6-1.5-3c0-0.1,0-0.1,0-0.2c0.1-0.8,0.4-1.5,0.8-2c0-0.1,0.1-0.1,0.2-0.2
				c0.7-0.6,1.6-1,2.8-1c1.4,0,2.5,0.5,3.3,1.6c0,0,0.1,0.1,0.1,0.2s0.1,0.2,0.1,0.3L25,18c-0.1-0.2-0.2-0.4-0.4-0.5l-0.1-0.1
				c-0.3-0.4-0.7-0.5-1.2-0.5c-0.8,0-1.3,0.5-1.3,1.1c0,0.3,0.1,0.5,0.2,0.7c0,0.1,0.1,0.1,0.1,0.2l0.1,0.1c0.3,0.3,0.7,0.5,1.2,0.7
				l0.7,0.3c1,0.4,1.8,0.8,2.4,1.4c0.1,0,0.1,0.1,0.2,0.1c0.1,0.1,0.3,0.3,0.4,0.5c0.1,0.1,0.1,0.2,0.2,0.3c0.2,0.5,0.3,1,0.3,1.7
				c0,2.4-1.9,3.7-4.4,3.7c-1.5,0-2.7-0.5-3.6-1.2c0,0-0.1-0.1-0.1-0.1c-0.1-0.1-0.2-0.2-0.3-0.3c-0.1-0.1-0.1-0.1-0.2-0.2
				c0,0,0,0,0,0c-0.2-0.2-0.3-0.5-0.5-0.8l2.1-1.2c0.1,0.2,0.3,0.4,0.5,0.6c0,0.1,0.1,0.1,0.2,0.2c0.4,0.4,0.9,0.7,1.6,0.8
				c0.1,0,0.2,0,0.3,0c0.9,0,1.6-0.4,1.7-0.9c0.1-0.2,0.2-0.4,0.2-0.6c0-0.2,0-0.4-0.1-0.5c-0.3-0.5-0.9-0.7-1.7-1.1l-0.6-0.3
				c-0.7-0.2-1.2-0.5-1.7-0.9C21.1,21.2,21,21.1,21,21.1z"/>
			<path class="st0" d="M18.7,25.1c0.1,0.3,0.3,0.5,0.5,0.8c-0.2-0.3-0.4-0.6-0.6-0.9l2.1-1.2c0,0,0,0.1,0.1,0.1L18.7,25.1z"/>
			<path class="st0" d="M14.6,23.7c0,1.1-0.3,1.5-1,1.6c0.5-0.2,0.9-0.6,0.9-1.6v-8.9h0.1V23.7z"/>
			<path class="st0" d="M13.4,25.4c0.1,0,0.1,0,0.2,0C13.6,25.4,13.5,25.4,13.4,25.4z"/>
			<path class="st0" d="M17,24.7c0.2-0.2,0.2-0.5,0.2-0.8c0,0.3,0,0.6-0.1,0.9c-0.3,1.8-1.4,2.7-3,3c-0.3,0-0.5,0.1-0.8,0.1
				c-1.1,0-1.9-0.3-2.5-0.7c-0.1-0.1-0.2-0.1-0.2-0.2c0,0.1,0.1,0.1,0.1,0.1c0.6,0.4,1.5,0.7,2.5,0.7c0.3,0,0.6,0,0.8-0.1
				C15.6,27.5,16.7,26.5,17,24.7z"/>
			<path class="st0" d="M17.2,14.8L17.2,14.8l-2.5,0.1v8.9c0,1.2-0.4,1.6-1.2,1.7c-0.1,0-0.2,0-0.3,0h-0.1c-0.9,0-1.3-0.5-1.7-1.2
				l-1.9,1.2c0-0.1-0.1-0.1-0.1-0.2l2-1.2c0.4,0.7,0.8,1.3,1.7,1.3c0.1,0,0.2,0,0.3,0c0.1,0,0.2,0,0.2,0c0,0,0,0,0,0
				c0.6-0.1,1-0.6,1-1.6v-8.9h2.5H17.2z"/>
			<path class="st0" d="M11.4,24.1l-2,1.2c0,0.1,0.1,0.1,0.1,0.2l-0.1,0c0,0-0.1-0.1-0.1-0.2l0.8-0.5L11.4,24.1z"/>
			<polygon class="st0" points="11.4,24.1 10.1,24.8 11.3,24.1 			"/>
			<path class="st0" d="M17.2,23.8c0,0,0,0.1,0,0.1c0,0.3,0,0.6-0.2,0.8c-0.3,1.8-1.4,2.8-3,3c-0.2,0.1-0.5,0.1-0.8,0.1
				c-1,0-1.9-0.3-2.5-0.7c0,0-0.1-0.1-0.1-0.1c-0.5-0.4-0.9-0.9-1.2-1.5l0,0c0.4,0.6,0.7,1.1,1.4,1.5c-0.5-0.5-1-1-1.3-1.5l1.9-1.2
				c0.4,0.7,0.8,1.2,1.7,1.2h0.1c0.1,0,0.2,0,0.3,0c0.8-0.1,1.2-0.5,1.2-1.7v-8.9h2.5V23.8z"/>
			<path class="st0" d="M10.6,27c-0.6-0.5-1.1-1-1.4-1.6l0.1-0.1c0,0,0.1,0.1,0.1,0.2l0,0C9.7,26.1,10.1,26.6,10.6,27z"/>
			<path class="st0" d="M17.2,23.8v-8.9v-0.1h-0.1h-2.5h-0.1v8.9c0,1-0.3,1.5-0.9,1.6c0,0,0,0,0,0c-0.1,0-0.1,0-0.2,0
				c-0.1,0-0.2,0-0.3,0c-0.9,0-1.3-0.6-1.7-1.3h-0.1l-1.2,0.7l-0.8,0.5c0,0,0,0,0,0l-0.1,0.1c0.3,0.6,0.7,1.1,1.4,1.6
				c0.1,0.1,0.2,0.1,0.2,0.2c0.6,0.4,1.4,0.7,2.5,0.7c0.3,0,0.5-0.1,0.8-0.1c1.6-0.3,2.7-1.2,3-3c0.1-0.3,0.1-0.6,0.1-0.9
				C17.2,23.9,17.2,23.8,17.2,23.8z M8,12.5h20.3v16.3H8V12.5z M18.6,25c0.1,0.3,0.4,0.6,0.6,0.9c0,0,0,0,0,0
				c0.1,0.1,0.1,0.2,0.2,0.2c0.1,0.1,0.2,0.2,0.3,0.3c0,0,0.1,0,0.1,0.1c0.9,0.8,2.1,1.3,3.7,1.3c2.5,0,4.4-1.3,4.4-3.7
				c0-0.7-0.2-1.3-0.4-1.8c0-0.1-0.1-0.2-0.2-0.3c-0.1-0.2-0.2-0.4-0.4-0.6c-0.1,0-0.1-0.1-0.2-0.1c-0.2-0.2-0.4-0.4-0.7-0.6
				c-0.5-0.3-1.1-0.6-1.7-0.8l-0.7-0.3c-0.6-0.3-0.9-0.5-1.2-0.7l-0.1-0.1c0,0-0.1-0.1-0.1-0.1c-0.1-0.1-0.1-0.3-0.1-0.5
				c0-0.6,0.5-1.1,1.3-1.1c0.5,0,0.8,0.1,1.1,0.4l0.1,0.1c0.1,0.1,0.2,0.3,0.4,0.5c0,0,0,0.1,0.1,0.1l2-1.3
				c-0.1-0.1-0.2-0.3-0.2-0.4s-0.1-0.1-0.1-0.2c-0.7-1.1-1.7-1.6-2.9-1.7c-0.1,0-0.3,0-0.5,0c0,0-0.1,0-0.1,0c-0.1,0-0.2,0-0.3,0
				c-2.2,0.1-3.6,1.6-3.6,3.5c0,0,0,0.1,0,0.1c0,0,0,0.1,0,0.1c0,1.3,0.6,2.2,1.4,2.9c0.1,0,0.1,0.1,0.2,0.1c0.5,0.3,1,0.6,1.6,0.8
				l0.6,0.2c0.9,0.5,1.6,0.8,1.8,1.3c0,0,0,0.1,0.1,0.1c0,0,0,0,0,0.1c0,0.1,0,0.2,0,0.3c0,0.4-0.2,0.8-0.6,1
				c-0.3,0.1-0.6,0.2-1,0.2c-0.8,0-1.4-0.3-1.8-0.7c-0.1,0-0.1-0.1-0.2-0.2c-0.2-0.2-0.3-0.4-0.5-0.6l-0.1-0.1l-0.2,0.1v0L18.6,25z"
				/>
			<path class="st0" d="M10.1,24.8l-0.8,0.5c0,0,0,0,0,0L10.1,24.8z"/>
			<path class="st0" d="M9.5,25.5c0.3,0.5,0.7,1.1,1.3,1.5C10.1,26.6,9.8,26.1,9.5,25.5L9.5,25.5z"/>
		</g>
		<g>
		</g>
	</g>
</g>
<g>
	<path class="st1" d="M14.4,15.3h3v8.4c0,3.7-1.8,5.1-4.7,5.1c-0.7,0-1.6-0.1-2.2-0.3l0.3-2.4c0.4,0.1,0.9,0.2,1.5,0.2
		c1.3,0,2-0.6,2-2.6V15.3z"/>
	<path class="st1" d="M20,25.4c0.8,0.4,2,0.8,3.3,0.8c1.4,0,2.1-0.6,2.1-1.4c0-0.8-0.6-1.3-2.2-1.8c-2.2-0.8-3.6-2-3.6-3.9
		c0-2.3,1.9-4,5-4c1.5,0,2.6,0.3,3.4,0.7l-0.7,2.4c-0.5-0.2-1.5-0.6-2.8-0.6c-1.3,0-1.9,0.6-1.9,1.3c0,0.8,0.7,1.2,2.4,1.9
		c2.3,0.9,3.4,2.1,3.4,4c0,2.2-1.7,4.1-5.3,4.1c-1.5,0-3-0.4-3.7-0.8L20,25.4z"/>
</g>
</svg>
